**ABCDEFGHIJKLMNOPQRSTUVWXYZabcdefghijklmnopqrstuvwxyz**************************
**PARASOLID !"#$%&'()*+,-./:;<=>?@[\]^_`{|}~0123456789**************************
**PART1;
MC=unknown;
MC_MODEL=unknown;
MC_ID=unknown;
OS=unknown;
OS_RELEASE=unknown;
FRU=Parasolid 30.0.226;
APPL=Onshape;
SITE=unknown;
USER=unknown;
FORMAT=text;
GUISE=transmit;
KEY=BTGapi::writeModels_.xmt;
FILE=BTGapi::writeModels_.xmt;
DATE=2017-11-03T14:22:27 (UTC);
**PART2;
SCH=SCH_3000226_30000;
USFLD_SIZE=0;
**PART3;
**END_OF_HEADER*****************************************************************
T51 : TRANSMIT FILE created by modeller version 300022623 SCH_3000226_30000_1300
6205 0 12 33 CCCCCCI4 mesh1006 0 I8 polyline1008 0 CCCCCCCDI5 owner1040 0 CCCCCC
I13 boundary_mesh1006 0 I17 boundary_polyline1008 0 CCCA16 index_map_offset0 0 1
 dA9 index_map82 0 A17 node_id_index_map82 0 A20 schema_embedding_map82 0 A5 chi
ld12 0 A14 lowest_node_id0 0 1 dZ1 1071 2 3 0 0 0 0 0 0 1e3 1e-8 0 4 0 1 0 1 1 5
 6 7 8 0 0 9 10 11 0 0 0 0 0 0 81 255 1 2 1046 12 1 13 0 0 0 14 70 11 CI9 list_t
ype0 0 1 uI10 notransmit0 0 1 lCCCDCCDI12 finger_index0 0 1 dI12 finger_block101
2 0 CZ3 0 4 T1 0 0 5 20 1 15 15 13 255 5 829 0 1 0 16 0 0 17 0 50 255 6 805 0 18
 19 0 0 +-.01225 5e-4 .003 0 1 0 0 0 1 30 255 7 828 0 20 21 0 0 +-.0095 5e-4 .00
3 0 0 -1 29 255 8 691 0 22 23 0 .01277386360737624 .026309397513309 0 19 8 CCCCC
CCA5 owner12 0 Z9 314 0 1 17 0 24 V0 16 255 10 728 25 ?26 0 27 28 0 0 1 18 255 1
1 308 29 30 0 31 32 ?1 81 1 29 936 33 11 0 0 34 35 36 17 255 30 0 37 38 39 11 40
 41 0 42 +18 31 303 43 44 11 45 46 ?1 29 32 310 0 11 46 47 .01277386360737624 .0
26309397513309 .003 29 46 305 0 31 48 32 .00994543648263005 .02913782463805515 .
003 29 47 713 0 49 32 50 -.0095 5e-4 0 18 49 663 51 52 53 0 47 ?1 29 50 712 0 53
 47 54 -.015 .000499999999999994 0 18 53 659 55 56 57 49 50 ?1 29 54 711 0 57 50
 58 -.02 5e-4 0 18 57 655 59 60 61 53 54 ?1 29 58 710 0 61 54 62 -.0195 0 0 18 6
1 651 63 64 65 57 58 ?1 29 62 709 0 65 58 66 0 0 0 18 65 647 67 68 69 61 62 ?1 2
9 66 708 0 69 62 70 -.02 -5e-4 0 18 69 643 71 72 73 65 66 ?1 29 70 707 0 73 66 7
4 -.0195 -5e-4 0 18 73 639 75 76 77 69 70 ?1 29 74 706 0 77 70 78 .0004999999999
99988 -.02 0 18 77 635 79 80 81 73 74 ?1 29 78 705 0 81 74 82 5e-4 -.015 0 18 81
 631 83 26 84 77 78 ?1 29 82 704 0 84 78 85 5e-4 -.0095 0 18 84 627 86 87 88 81
 82 ?1 29 85 703 0 88 82 89 0 -.0195 0 18 88 623 90 91 92 84 85 ?1 29 89 702 0 9
2 85 93 .0245416305603426 .01454163056034262 0 18 92 619 94 95 96 88 89 ?1 29 93
 701 0 96 89 97 .01454163056034262 .0245416305603426 0 18 96 615 98 99 100 92 93
 ?1 29 97 700 0 100 93 101 -5e-4 -.0195 0 18 100 611 102 103 104 96 97 ?1 29 101
 699 0 104 97 105 -5e-4 -.02 0 18 104 607 106 107 108 100 101 ?1 29 105 698 0 10
8 101 109 .026309397513309 .01277386360737626 0 18 108 603 110 111 112 104 105 ?
1 29 109 697 0 112 105 113 .0291378246380552 .00994543648263007 0 18 112 599 114
 115 116 108 109 ?1 29 113 696 0 116 109 117 .0316126983722081 .0074705627484771
3 0 18 116 595 118 119 120 112 113 ?1 29 117 695 0 120 113 121 .0556543289325507
 .0315121933088198 0 18 120 591 122 123 124 116 117 ?1 29 121 694 0 124 117 125
 .03151219330881975 .0556543289325507 0 18 124 587 126 127 128 120 121 ?1 29 125
 693 0 128 121 23 .00747056274847714 .0316126983722081 0 18 128 583 35 129 130 1
24 125 ?1 29 23 692 0 130 125 8 .00994543648263005 .02913782463805515 0 18 130 5
79 131 132 22 128 23 ?1 81 1 131 945 33 130 0 0 133 43 134 17 132 0 135 136 137
 130 44 138 0 139 +18 22 575 34 140 141 130 8 ?1 81 1 34 935 33 22 0 0 142 29 14
3 17 140 0 144 145 146 22 42 147 0 148 +18 141 178 149 150 151 22 152 ?1 81 1 14
9 908 33 141 0 0 51 55 153 17 150 0 154 155 156 141 52 20 0 157 -18 151 183 158
 159 160 141 161 ?1 29 152 180 0 141 0 161 -.0095 5e-4 .003 29 161 185 0 151 152
 162 -.015 .000499999999999994 .003 29 162 190 0 160 161 163 -.02 5e-4 .003 18 1
60 188 164 165 166 151 162 ?1 29 163 200 0 166 162 167 -.0195 0 .003 18 166 198
 168 169 170 160 163 ?1 29 167 205 0 170 163 171 0 0 .003 18 170 203 172 173 174
 166 167 ?1 29 171 215 0 174 167 175 -.02 -5e-4 .003 18 174 213 176 177 178 170
 171 ?1 29 175 220 0 178 171 179 -.0195 -5e-4 .003 18 178 218 180 181 182 174 17
5 ?1 29 179 230 0 182 175 183 .000499999999999988 -.02 .003 18 182 228 184 185 1
86 178 179 ?1 29 183 235 0 186 179 187 5e-4 -.015 .003 18 186 233 188 189 190 18
2 183 ?1 29 187 240 0 190 183 191 5e-4 -.0095 .003 18 190 238 192 193 194 186 18
7 ?1 29 191 250 0 194 187 195 0 -.0195 .003 18 194 248 196 197 198 190 191 ?1 29
 195 255 0 198 191 199 .0245416305603426 .01454163056034262 .003 18 198 253 200
 201 202 194 195 ?1 29 199 260 0 202 195 203 .01454163056034262 .024541630560342
6 .003 18 202 258 204 205 206 198 199 ?1 29 203 265 0 206 199 207 -5e-4 -.0195 .
003 18 206 263 208 209 210 202 203 ?1 29 207 270 0 210 203 211 -5e-4 -.02 .003 1
8 210 268 212 213 214 206 207 ?1 29 211 275 0 214 207 215 .026309397513309 .0127
7386360737626 .003 18 214 273 142 216 217 210 211 ?1 29 215 280 0 217 211 218 .0
291378246380552 .00994543648263007 .003 18 217 278 219 220 221 214 215 ?1 29 218
 285 0 221 215 222 .0316126983722081 .00747056274847713 .003 18 221 283 223 224
 225 217 218 ?1 29 222 290 0 225 218 226 .0556543289325507 .0315121933088198 .00
3 18 225 288 133 227 228 221 222 ?1 29 226 295 0 228 222 48 .03151219330881975 .
0556543289325507 .003 18 228 293 229 230 45 225 226 ?1 29 48 300 0 45 226 46 .00
747056274847714 .0316126983722081 .003 18 45 298 231 232 31 228 48 ?1 81 1 231 9
38 33 45 0 0 35 126 233 17 232 0 234 235 236 45 129 237 0 238 -15 255 234 749 0
 236 239 0 17 235 0 234 127 232 228 238 240 0 0 +17 236 0 234 232 127 128 241 24
2 0 243 -17 129 0 244 139 245 128 232 237 0 236 +16 237 716 246 ?129 247 138 248
 0 0 1 17 238 0 249 250 230 45 235 240 0 245 -15 249 5 0 251 252 253 17 250 0 24
9 251 238 31 245 254 0 137 -17 230 0 249 238 255 228 227 256 0 257 +16 240 146 2
58 ?235 254 256 259 0 0 1 17 245 0 244 129 44 45 250 254 0 0 +15 244 747 0 139 2
60 0 17 44 0 244 245 139 31 132 138 0 250 -16 254 150 261 ?245 262 240 263 0 0 1
 81 1 261 1001 33 254 0 0 264 265 266 16 262 158 267 ?146 268 254 269 0 0 1 30 2
63 151 0 254 259 269 0 +.0087079996155536 .03037526150513165 .003 -.707106781186
548 .707106781186547 0 30 259 147 0 240 270 263 0 +.01949137802864845 .043633513
6523794 .003 .707106781186547 .707106781186548 0 30 269 159 0 262 263 271 0 +.01
365774708385942 .0254255140368258 .003 -.707106781186548 .707106781186547 0 30 2
71 163 0 268 269 272 0 +-.00502728175868497 .0148189123190276 .003 .722709800918
417 .691151606853708 0 16 268 162 273 ?137 41 262 271 0 0 1 30 272 167 0 41 271
 274 0 +-.001113068196311876 .0134046987566545 .003 .732538548476428 .6807255504
21055 0 16 41 166 275 ?30 276 268 272 0 0 1 30 274 171 0 276 272 277 0 +.0134046
987566545 -.001113068196311874 .003 .680725550421055 .732538548476428 0 16 276 1
70 278 ?279 280 41 274 0 0 1 30 277 175 0 280 274 281 0 +.01481891231902758 -.00
502728175868497 .003 .691151606853708 .722709800918417 0 16 280 174 282 ?283 20
 276 277 0 0 1 30 281 690 0 284 277 285 0 +-.01225 5e-4 0 1 0 0 16 284 571 286 ?
287 288 0 281 0 0 1 30 285 689 0 288 281 289 0 +-.02 25e-5 0 0 1 0 16 288 565 29
0 ?291 292 284 285 0 0 1 30 289 688 0 292 285 293 0 +-.00975 0 0 1 0 0 16 292 56
1 294 ?295 296 288 289 0 0 1 30 293 687 0 296 289 297 0 +-.01975 -5e-4 0 1 0 0 1
6 296 557 298 ?299 300 292 293 0 0 1 30 297 686 0 300 293 301 0 +-.0195 -25e-5 0
 0 -1 0 16 300 553 302 ?303 304 296 297 0 0 1 30 301 685 0 304 297 305 0 +25e-5
 -.02 0 -1 0 0 16 304 547 306 ?307 308 300 301 0 0 1 30 305 684 0 308 301 309 0
 +5e-4 -.01225 0 591383003173912e-31 1 0 16 308 543 310 ?311 312 304 305 0 0 1 3
0 309 683 0 312 305 313 0 +0 -.00975 0 0 1 0 16 312 539 314 ?315 316 308 309 0 0
 1 30 313 682 0 316 309 317 0 +.002520815280171305 .0125208152801713 0 .70710678
1186547 .707106781186548 0 16 316 535 318 ?319 320 312 313 0 0 1 30 317 681 0 32
0 313 321 0 +.0125208152801713 .00252081528017131 0 .707106781186547 .7071067811
86548 0 16 320 531 322 ?323 324 316 317 0 0 1 30 321 680 0 324 317 325 0 +-.0002
499999999999945 -.0195 0 -1 0 0 16 324 527 326 ?327 328 320 321 0 0 1 30 325 679
 0 328 321 329 0 +-5e-4 -.01975 0 -2168404344971005e-31 1 0 16 328 523 330 ?331
 332 324 325 0 0 1 30 329 678 0 332 325 333 0 +.0254255140368258 .01365774708385
944 0 .707106781186547 -.707106781186548 0 16 332 519 334 ?335 336 328 329 0 0 1
 30 333 677 0 336 329 337 0 +.03037526150513165 .00870799961555361 0 .7071067811
86548 -.707106781186548 0 16 336 515 338 ?339 340 332 333 0 0 1 30 337 676 0 340
 333 341 0 +.0436335136523794 .01949137802864845 0 .707106781186547 .70710678118
6548 0 16 340 511 342 ?343 344 336 337 0 0 1 30 341 675 0 344 337 345 0 +.043583
26112068525 .04358326112068525 0 -.707106781186548 .707106781186547 0 16 344 507
 346 ?347 242 340 341 0 0 1 30 345 674 0 242 341 348 0 +.01949137802864845 .0436
335136523794 0 .707106781186547 .707106781186548 0 16 242 503 349 ?241 350 344 3
45 0 0 1 30 348 673 0 350 345 351 0 +.0087079996155536 .03037526150513165 0 -.70
7106781186548 .707106781186547 0 16 350 499 264 ?243 352 242 348 0 0 1 30 351 67
2 0 352 348 353 0 +.01365774708385942 .0254255140368258 0 -.707106781186548 .707
106781186547 0 16 352 495 265 ?354 355 350 351 0 0 1 30 353 671 0 355 351 356 0
 +-.00502728175868497 .0148189123190276 0 .722709800918417 .691151606853708 0 16
 355 491 357 ?358 359 352 353 0 0 1 30 356 670 0 359 353 360 0 +-.00111306819631
1876 .0134046987566545 0 .732538548476428 .680725550421055 0 16 359 487 361 ?148
 362 355 356 0 0 1 30 360 669 0 362 356 363 0 +.0134046987566545 -.0011130681963
11874 0 .680725550421055 .732538548476428 0 16 362 483 364 ?365 366 359 360 0 0
 1 30 363 668 0 366 360 367 0 +.01481891231902758 -.00502728175868497 0 .6911516
06853708 .722709800918417 0 16 366 479 368 ?369 370 362 363 0 0 1 30 367 806 0 1
47 363 371 0 +.01277386360737624 .026309397513309 .003 0 0 -1 16 147 714 372 ?14
0 373 374 367 0 0 1 30 371 807 0 138 367 248 0 +.00994543648263005 .029137824638
05515 .003 0 0 -1 16 138 715 375 ?132 237 373 371 0 0 1 30 248 808 0 237 371 376
 0 +.00747056274847714 .0316126983722081 .003 0 0 -1 30 376 809 0 247 248 377 0
 +.03151219330881975 .0556543289325507 .003 0 0 -1 16 247 717 378 ?127 379 237 3
76 0 0 1 30 377 810 0 379 376 380 0 +.0556543289325507 .0315121933088198 .003 0
 0 -1 16 379 718 381 ?382 383 247 377 0 0 1 30 380 811 0 383 377 384 0 +.0316126
983722081 .00747056274847713 .003 0 0 -1 16 383 719 385 ?386 387 379 380 0 0 1 3
0 384 812 0 387 380 388 0 +.0291378246380552 .00994543648263007 .003 0 0 -1 16 3
87 720 389 ?390 391 383 384 0 0 1 30 388 813 0 392 384 393 0 +.026309397513309 .
01277386360737626 .003 0 0 -1 16 392 721 394 ?111 395 396 388 0 0 1 30 393 814 0
 397 388 398 0 +-5e-4 -.02 .003 0 0 -1 16 397 722 399 ?107 400 391 393 0 0 1 30
 398 815 0 400 393 401 0 +-5e-4 -.0195 .003 0 0 -1 16 400 723 402 ?103 403 397 3
98 0 0 1 30 401 816 0 374 398 404 0 +.01454163056034262 .0245416305603426 .003 0
 0 -1 16 374 724 405 ?99 147 20 401 0 0 1 30 404 817 0 395 401 406 0 +.024541630
5603426 .01454163056034262 .003 0 0 -1 16 395 725 407 ?408 27 392 404 0 0 1 30 4
06 818 0 403 404 409 0 +0 -.0195 .003 0 0 -1 16 403 726 410 ?91 411 400 406 0 0
 1 30 409 819 0 27 406 28 0 +5e-4 -.0095 .003 0 0 -1 16 27 727 412 ?413 10 395 4
09 0 0 1 30 28 820 0 10 409 414 0 +5e-4 -.015 .003 0 0 -1 30 414 821 0 391 28 41
5 0 +.000499999999999988 -.02 .003 0 0 -1 16 391 729 416 ?80 397 387 414 0 0 1 3
0 415 822 0 417 414 418 0 +-.0195 -5e-4 .003 0 0 -1 16 417 730 419 ?76 420 421 4
15 0 0 1 30 418 823 0 420 415 422 0 +-.02 -5e-4 .003 0 0 -1 16 420 731 423 ?72 3
96 417 418 0 0 1 30 422 824 0 411 418 424 0 +0 0 .003 0 0 -1 16 411 732 425 ?68
 421 403 422 0 0 1 30 424 825 0 421 422 426 0 +-.0195 0 .003 0 0 -1 16 421 733 4
27 ?64 417 411 424 0 0 1 30 426 826 0 396 424 21 0 +-.02 5e-4 .003 0 0 -1 16 396
 734 428 ?60 392 420 426 0 0 1 30 21 827 0 373 426 7 0 +-.015 .00049999999999999
4 .003 0 0 -1 16 373 735 429 ?56 138 147 21 0 0 1 81 1 429 952 33 373 0 0 430 42
5 431 17 56 0 432 148 40 53 159 373 0 433 +15 432 741 0 148 434 0 17 148 0 432 4
2 56 22 433 359 0 354 +17 40 0 432 56 42 151 30 41 0 39 -17 159 0 435 436 437 15
1 56 373 0 40 -17 433 0 438 287 354 53 148 359 0 437 -15 438 476 0 287 439 440 1
7 287 0 438 319 433 49 437 284 0 0 +17 354 0 438 433 319 22 145 352 0 0 +17 437
 0 435 159 52 53 287 284 0 0 -15 435 781 0 437 18 0 17 52 0 435 437 436 49 150 2
0 0 156 +17 436 0 435 52 159 141 39 370 0 0 +16 20 736 430 ?52 374 280 7 0 0 1 1
7 156 0 154 150 99 49 319 316 0 287 -15 154 765 0 156 441 0 17 99 0 154 156 155
 96 205 374 0 145 +17 319 0 438 354 287 96 156 316 0 0 +17 155 0 154 99 150 202
 157 442 0 0 +17 205 0 144 146 145 202 99 374 0 38 -17 145 0 144 205 140 96 354
 352 0 319 -15 144 745 0 145 443 0 14 255 443 746 444 ?260 434 144 5 445 +0 0 26
0 434 24 81 1 444 1066 446 443 447 0 448 449 450 14 260 748 449 ?441 443 244 5 4
51 +0 0 441 443 24 14 434 742 448 ?443 18 432 5 452 -0 0 443 18 24 50 445 787 0
 443 453 451 0 +.01365774708385942 .0254255140368258 .003 -.707106781186547 -.70
7106781186548 0 .707106781186548 -.707106781186547 0 13 24 315 0 0 0 0 0 0 9 16
 14 16 740 454 ?455 0 456 5 457 +0 0 455 0 24 81 1 454 1047 446 16 458 0 0 459 4
60 14 455 770 459 ?461 16 462 5 463 -0 0 461 16 24 15 456 739 0 464 16 0 50 457
 784 0 16 465 452 0 +.0134046987566545 -.001113068196311874 .003 -.7325385484764
28 .680725550421054 0 -.680725550421055 -.732538548476428 0 50 465 783 0 466 467
 457 0 +.01481891231902758 -.00502728175868497 .003 -.722709800918417 .691151606
853707 0 -.691151606853707 -.722709800918417 0 50 452 785 0 434 457 453 0 +-.001
113068196311876 .0134046987566545 .003 -.680725550421055 .732538548476428 0 -.73
2538548476428 -.680725550421055 0 50 453 786 0 468 452 445 0 +-.0050272817586849
7 .0148189123190276 .003 -.691151606853708 .722709800918417 0 -.722709800918417
 -.691151606853708 0 14 468 744 469 ?470 461 135 5 453 +0 0 470 461 24 81 1 469
 1050 446 468 471 0 472 473 474 14 470 780 473 ?475 468 476 5 19 +0 0 475 468 24
 14 461 764 472 ?468 455 477 5 478 -0 0 468 455 24 15 135 743 0 136 468 0 17 136
 0 135 165 132 57 358 355 0 291 -17 165 0 135 137 136 160 60 396 0 251 -17 358 0
 440 243 291 130 136 355 0 0 +17 291 0 440 358 479 57 480 288 0 0 +15 440 477 0
 358 439 481 17 479 0 440 291 303 69 299 296 0 480 -17 480 0 476 177 60 69 291 2
88 0 0 -15 476 779 0 480 470 0 17 177 0 476 482 480 174 72 420 0 483 -17 60 0 47
6 480 482 57 165 396 0 136 +17 482 0 476 60 177 160 484 485 0 0 +17 484 0 249 18
1 251 174 482 485 0 0 -16 485 46 486 ?482 487 370 488 0 0 1 81 1 486 975 33 485
 0 0 290 286 489 16 487 54 490 ?173 491 485 492 0 0 1 16 370 38 493 ?436 485 366
 494 0 0 1 30 488 47 0 485 494 492 0 +-.02 25e-5 .003 0 1 0 30 494 39 0 370 0 48
8 0 +-.01225 5e-4 .003 1 0 0 30 492 55 0 487 488 495 0 +-.00975 0 .003 1 0 0 30
 495 67 0 491 492 496 0 +-.01975 -5e-4 .003 1 0 0 16 491 66 497 ?181 498 487 495
 0 0 1 30 496 71 0 498 495 499 0 +-.0195 -25e-5 .003 0 -1 0 16 498 70 500 ?501 5
02 491 496 0 0 1 30 499 79 0 502 496 503 0 +25e-5 -.02 .003 -1 0 0 16 502 78 504
 ?505 506 498 499 0 0 1 30 503 87 0 506 499 507 0 +5e-4 -.01225 .003 59138300317
3912e-31 1 0 16 506 86 508 ?509 510 502 503 0 0 1 30 507 99 0 510 503 511 0 +0 -
.00975 .003 0 1 0 16 510 98 512 ?513 442 506 507 0 0 1 30 511 103 0 442 507 514
 0 +.002520815280171305 .0125208152801713 .003 .707106781186547 .707106781186548
 0 16 442 102 515 ?155 516 510 511 0 0 1 30 514 107 0 516 511 517 0 +.0125208152
801713 .00252081528017131 .003 .707106781186547 .707106781186548 0 16 516 106 51
8 ?519 520 442 514 0 0 1 30 517 119 0 520 514 521 0 +-.0002499999999999945 -.019
5 .003 -1 0 0 16 520 118 522 ?209 523 516 517 0 0 1 30 521 123 0 523 517 524 0 +
-5e-4 -.01975 .003 -2168404344971005e-31 1 0 16 523 122 525 ?526 527 520 521 0 0
 1 30 524 127 0 527 521 528 0 +.0254255140368258 .01365774708385944 .003 .707106
781186547 -.707106781186548 0 16 527 126 529 ?216 530 523 524 0 0 1 30 528 135 0
 530 524 531 0 +.03037526150513165 .00870799961555361 .003 .707106781186548 -.70
7106781186548 0 16 530 134 532 ?533 534 527 528 0 0 1 30 531 139 0 534 528 270 0
 +.0436335136523794 .01949137802864845 .003 .707106781186547 .707106781186548 0
 16 534 138 535 ?255 256 530 531 0 0 1 30 270 143 0 256 531 259 0 +.043583261120
68525 .04358326112068525 .003 -.707106781186548 .707106781186547 0 16 256 142 53
6 ?230 240 534 270 0 0 1 81 1 536 1009 33 256 0 0 346 361 537 80 255 1 33 538 53
9 9000 0 0 0 0 3 6 0 0 0 FFTFTFTTFFFFFF1 81 1 346 1008 33 344 0 0 535 536 540 81
 1 361 1010 33 359 0 0 536 275 541 82 255 3 537 6 60 1 81 1 275 1011 33 41 0 0 3
61 357 542 82 3 541 6 61 1 81 1 357 1012 33 355 0 0 275 273 543 82 3 542 6 62 1
 81 1 273 1013 33 268 0 0 357 364 544 82 3 543 6 63 1 81 1 364 1014 33 362 0 0 2
73 278 545 82 3 544 6 64 1 81 1 278 1015 33 276 0 0 364 368 546 82 3 545 6 65 1
 81 1 368 1016 33 366 0 0 278 282 547 82 3 546 6 66 1 81 1 282 1017 33 280 0 0 3
68 548 549 82 3 547 6 67 1 81 1 548 1018 33 439 0 550 282 551 552 82 3 549 6 68
 1 14 439 441 550 ?0 252 438 5 467 -0 0 0 252 24 81 1 550 1071 446 439 548 0 553
 0 554 81 1 551 1019 33 252 0 553 548 555 556 82 3 552 6 0 2 14 252 1 553 ?439 5
57 37 5 558 +0 0 439 557 24 81 1 553 1070 446 252 551 0 559 550 560 81 1 555 102
0 33 561 0 562 551 563 564 82 3 556 6 1 2 14 561 772 562 ?466 565 566 5 567 +0 0
 466 565 24 81 1 562 1058 446 561 555 0 568 569 570 81 1 563 1021 33 470 0 473 5
55 571 572 82 3 564 6 2 2 81 1 473 1051 446 470 563 0 469 573 574 81 1 571 1022
 33 18 0 575 563 576 577 82 3 572 6 3 2 14 18 782 575 ?434 239 435 5 6 +0 0 434
 239 24 81 1 575 1064 446 18 571 0 578 448 579 81 1 576 1023 33 580 0 581 571 58
2 583 82 3 577 6 4 2 14 580 768 581 ?584 585 586 5 587 +0 0 584 585 24 81 1 581
 1055 446 580 576 0 588 589 590 81 1 582 1024 33 455 0 459 576 591 592 82 3 583
 6 5 2 81 1 459 1048 446 455 582 0 454 472 593 81 1 591 1025 33 585 0 588 582 59
4 595 82 3 592 6 6 2 14 585 778 588 ?580 596 597 5 598 -0 0 580 596 24 81 1 588
 1054 446 585 591 0 599 581 600 81 1 594 1026 33 475 0 573 591 601 602 82 3 595
 6 7 2 14 475 776 573 ?596 470 603 5 604 -0 0 596 470 24 81 1 573 1052 446 475 5
94 0 473 599 605 81 1 601 1027 33 596 0 599 594 606 607 82 3 602 6 8 2 14 596 77
4 599 ?585 475 608 5 609 +0 0 585 475 24 81 1 599 1053 446 596 601 0 573 588 610
 81 1 606 1028 33 584 0 589 601 611 612 82 3 607 6 9 2 14 584 762 589 ?565 580 6
13 5 614 -0 0 565 580 24 81 1 589 1056 446 584 606 0 581 568 615 81 1 611 1029 3
3 565 0 568 606 616 617 82 3 612 6 10 2 14 565 760 568 ?561 584 618 5 619 +0 0 5
61 584 24 81 1 568 1057 446 565 611 0 589 562 620 81 1 616 1030 33 441 0 621 611
 622 623 82 3 617 6 11 2 14 441 766 621 ?557 260 154 5 624 +0 0 557 260 24 81 1
 621 1068 446 441 616 0 449 559 625 81 1 622 1031 33 461 0 472 616 626 627 82 3
 623 6 12 2 81 1 472 1049 446 461 622 0 459 469 628 81 1 626 1032 33 629 0 630 6
22 631 632 82 3 627 6 13 2 14 629 756 630 ?633 466 634 5 635 -0 0 633 466 24 81
 1 630 1060 446 629 626 0 569 636 637 81 1 631 1033 33 557 0 559 626 638 639 82
 3 632 6 14 2 14 557 758 559 ?252 441 640 5 641 -0 0 252 441 24 81 1 559 1069 44
6 557 631 0 621 553 642 81 1 638 1034 33 260 0 449 631 447 643 82 3 639 6 15 2 8
1 1 449 1067 446 260 638 0 444 621 644 81 1 447 1035 33 443 0 444 638 645 646 82
 3 643 6 16 2 81 1 645 1036 33 239 0 578 447 647 648 82 3 646 6 17 2 14 239 750
 578 ?18 649 234 5 650 +0 0 18 649 24 81 1 578 1063 446 239 645 0 651 575 652 81
 1 647 1037 33 633 0 636 645 653 654 82 3 648 6 18 2 14 633 754 636 ?649 629 655
 5 656 -0 0 649 629 24 81 1 636 1061 446 633 647 0 630 651 657 81 1 653 1038 33
 649 0 651 647 658 659 82 3 654 6 19 2 14 649 752 651 ?239 633 660 5 661 -0 0 23
9 633 24 81 1 651 1062 446 649 653 0 636 578 662 81 1 658 1039 33 434 0 448 653
 471 663 82 3 659 6 20 2 81 1 448 1065 446 434 658 0 575 444 664 81 1 471 1040 3
3 468 0 469 658 458 665 82 3 663 6 21 2 81 1 458 1041 33 16 0 454 471 666 667 82
 3 665 6 22 2 81 1 666 1042 33 466 0 569 458 668 669 82 3 667 6 23 2 14 466 738
 569 ?629 561 670 5 465 -0 0 629 561 24 81 1 569 1059 446 466 666 0 562 630 671
 81 1 668 1043 33 1 0 672 666 0 673 82 3 669 6 24 2 81 1 672 1044 674 1 668 13 0
 0 675 82 3 673 6 0 3 80 1 674 676 677 8038 0 0 0 0 0 0 0 0 0 TTTTTTTTTTTTTF10 8
1 1 13 1045 676 1 672 2 0 0 678 98 255 6 675 70 108 252 103 101 108 80 1 676 679
 680 8017 0 0 0 0 0 0 0 0 0 TTTTTTTTTTTTTF3 84 255 6 678 Flügel79 255 13 680 SDL
/TYSA_NAME79 14 677 SDL/TYSA_UNAME80 1 446 0 681 8001 0 0 0 0 3 5 0 0 0 FFFFTFTF
FFFFFF2 83 255 3 671 .603921568627451 .647058823529412 .686274509803922 79 15 68
1 SDL/TYSA_COLOUR15 670 737 0 369 466 0 17 369 0 670 682 80 112 683 366 0 0 +17
 682 0 670 684 369 217 390 387 0 0 -17 80 0 670 369 684 77 185 391 0 683 +17 683
 0 440 307 115 77 369 366 0 685 -17 307 0 440 331 683 104 685 304 0 0 +17 115 0
 440 683 119 112 339 336 0 390 -17 685 0 566 185 107 77 307 304 0 0 -15 566 771
 0 685 561 0 17 185 0 566 505 685 182 80 391 0 684 -17 107 0 566 685 505 104 213
 397 0 686 +17 505 0 566 107 185 210 687 502 0 0 +17 213 0 618 526 686 210 107 3
97 0 688 -17 686 0 618 213 103 104 331 328 0 307 -15 618 759 0 686 565 0 17 103
 0 618 686 526 100 689 400 0 327 +17 331 0 440 690 307 100 686 328 0 0 +17 690 0
 440 315 331 88 327 324 0 691 -17 315 0 440 692 690 65 691 312 0 0 +17 327 0 613
 689 91 100 690 324 0 331 +17 691 0 586 197 68 88 315 312 0 0 -15 586 767 0 691
 580 0 17 197 0 586 513 691 194 91 403 0 693 -17 68 0 586 691 513 65 694 411 0 2
95 +17 513 0 586 68 197 170 695 510 0 0 +17 694 0 597 696 295 170 68 411 0 513 -
17 295 0 597 694 64 65 692 292 0 315 +15 597 777 0 295 585 0 17 64 0 597 295 696
 61 169 421 0 692 +17 692 0 440 303 315 61 295 292 0 697 -17 303 0 440 479 692 7
3 697 300 0 0 +17 697 0 608 169 76 61 303 300 0 0 -15 608 773 0 697 596 0 17 169
 0 608 501 697 166 64 421 0 696 -17 76 0 608 697 501 73 698 417 0 299 +17 501 0
 608 76 169 178 699 498 0 0 +17 698 0 603 483 299 178 76 417 0 501 -17 299 0 603
 698 72 73 479 296 0 303 +15 603 775 0 299 475 0 17 72 0 603 299 483 69 177 420
 0 479 +17 483 0 603 72 698 174 181 491 0 484 -17 181 0 249 699 484 178 483 491
 0 698 +17 699 0 249 173 181 166 501 498 0 0 -17 173 0 249 695 699 170 696 487 0
 694 +17 695 0 249 209 173 194 513 510 0 0 -17 696 0 597 64 694 166 173 487 0 69
9 -17 209 0 249 688 695 206 693 520 0 689 +17 688 0 249 687 209 210 526 523 0 50
5 -17 693 0 613 91 689 194 209 520 0 695 -17 689 0 613 693 327 206 103 400 0 526
 -15 613 761 0 327 584 0 17 526 0 618 103 213 206 688 523 0 0 +17 91 0 613 327 6
93 88 197 403 0 690 +17 687 0 249 283 688 182 505 502 0 0 -17 283 0 249 533 687
 217 684 280 0 682 +17 533 0 249 255 283 221 220 530 0 700 +17 684 0 670 80 682
 182 283 280 0 687 -17 255 0 249 230 533 225 224 534 0 701 +17 220 0 634 390 700
 217 533 530 0 283 -17 700 0 634 220 339 221 386 383 0 0 -15 634 755 0 339 629 0
 17 339 0 634 700 390 116 115 336 0 0 +17 386 0 655 343 224 116 700 383 0 339 +1
5 655 753 0 343 633 0 17 343 0 655 701 386 120 119 340 0 0 +17 224 0 655 386 701
 221 255 534 0 533 -17 701 0 655 224 343 225 382 379 0 0 -17 382 0 660 347 227 1
20 701 379 0 343 +15 660 751 0 347 649 0 17 347 0 660 257 382 124 123 344 0 241
 +17 227 0 660 382 257 225 230 256 0 255 -17 257 0 660 227 347 228 127 247 0 235
 -17 127 0 234 236 235 124 257 247 0 347 +17 123 0 440 119 241 120 347 344 0 382
 -17 241 0 440 123 243 124 236 242 0 0 +17 243 0 440 241 358 128 139 350 0 0 +17
 139 0 244 44 129 130 243 350 0 358 -17 119 0 440 115 123 116 343 340 0 386 -17
 390 0 634 339 220 112 682 387 0 369 +83 3 664 .603921568627451 .647058823529412
 .686274509803922 83 3 662 .603921568627451 .647058823529412 .686274509803922 50
 661 790 0 649 650 656 0 +.04358326112068525 .04358326112068525 .003 -.707106781
186547 -.707106781186548 0 .707106781186548 -.707106781186547 0 50 650 789 0 239
 451 661 0 +.01949137802864845 .0436335136523794 .003 -.707106781186548 .7071067
81186547 0 -.707106781186547 -.707106781186548 0 50 656 791 0 633 661 635 0 +.04
36335136523794 .01949137802864845 .003 -.707106781186548 .707106781186547 0 -.70
7106781186547 -.707106781186548 0 50 635 792 0 629 656 641 0 +.03037526150513165
 .00870799961555361 .003 .707106781186547 .707106781186548 0 -.707106781186548 .
707106781186548 0 50 641 793 0 557 635 619 0 +.0254255140368258 .013657747083859
44 .003 .707106781186548 .707106781186547 0 -.707106781186547 .707106781186548 0
 50 619 794 0 565 641 614 0 +-5e-4 -.01975 .003 -1 -2168404344971005e-31 0 21684
04344971005e-31 -1 0 50 614 795 0 584 619 478 0 +-.0002499999999999945 -.0195 .0
03 0 -1 0 0 0 -1 50 478 796 0 461 614 624 0 +.0125208152801713 .0025208152801713
1 .003 -.707106781186548 .707106781186547 0 -.707106781186547 -.707106781186548
 0 50 624 797 0 441 478 587 0 +.002520815280171305 .0125208152801713 .003 -.7071
06781186548 .707106781186547 0 -.707106781186547 -.707106781186548 0 50 587 798
 0 580 624 463 0 +0 -.00975 .003 -1 0 0 0 0 1 50 463 799 0 455 587 567 0 +5e-4 -
.01225 .003 -1 591383003173912e-31 0 -591383003173912e-31 -1 0 50 567 800 0 561
 463 609 0 +25e-5 -.02 .003 0 -1 0 0 0 -1 50 609 801 0 596 567 604 0 +-.0195 -25
e-5 .003 1 0 0 0 0 -1 50 604 802 0 475 609 598 0 +-.01975 -5e-4 .003 0 1 0 0 0 1
 50 598 803 0 585 604 19 0 +-.00975 0 .003 0 1 0 0 0 1 50 19 804 0 470 598 6 0 +
-.02 25e-5 .003 -1 0 0 0 0 1 50 451 788 0 260 445 650 0 +.0087079996155536 .0303
7526150513165 .003 -.707106781186547 -.707106781186548 0 .707106781186548 -.7071
06781186547 0 83 3 657 .603921568627451 .647058823529412 .686274509803922 83 3 6
52 .603921568627451 .647058823529412 .686274509803922 83 3 644 .603921568627451
 .647058823529412 .686274509803922 83 3 642 .603921568627451 .647058823529412 .6
86274509803922 15 640 757 0 335 557 0 17 335 0 640 702 408 108 95 332 0 365 +17
 702 0 640 201 335 214 111 392 0 279 -17 408 0 640 335 201 92 703 395 0 323 +17
 95 0 481 87 365 92 335 332 0 408 -17 365 0 481 95 704 108 464 362 0 0 +15 481 4
78 0 365 439 0 17 704 0 481 365 87 81 311 308 0 464 -17 464 0 456 189 111 81 365
 362 0 0 -17 189 0 456 279 464 186 26 10 0 705 -17 111 0 456 464 279 108 702 392
 0 335 +17 279 0 456 111 189 214 706 276 0 0 +17 706 0 253 509 216 186 279 276 0
 0 -15 253 335 0 706 252 0 17 509 0 253 519 706 190 705 506 0 707 +17 216 0 253
 706 519 214 201 527 0 702 +17 519 0 253 216 509 198 193 516 0 703 +17 201 0 640
 408 702 198 216 527 0 519 -17 193 0 477 413 703 190 519 516 0 509 -17 703 0 477
 193 323 198 408 395 0 0 -15 477 763 0 323 461 0 17 323 0 477 703 413 92 87 320
 0 0 +17 413 0 477 323 193 84 707 27 0 311 +17 87 0 481 704 95 84 323 320 0 413
 -17 707 0 462 705 311 190 413 27 0 0 -17 311 0 462 707 26 84 704 308 0 0 +15 46
2 769 0 311 455 0 17 26 0 462 311 705 81 189 10 0 704 +17 705 0 462 26 707 186 5
09 506 0 706 -83 3 637 .603921568627451 .647058823529412 .686274509803922 83 3 6
28 .603921568627451 .647058823529412 .686274509803922 83 3 625 .603921568627451
 .647058823529412 .686274509803922 83 3 620 .603921568627451 .647058823529412 .6
86274509803922 83 3 615 .603921568627451 .647058823529412 .686274509803922 83 3
 610 .603921568627451 .647058823529412 .686274509803922 83 3 605 .60392156862745
1 .647058823529412 .686274509803922 83 3 600 .603921568627451 .647058823529412 .
686274509803922 83 3 593 .603921568627451 .647058823529412 .686274509803922 83 3
 590 .603921568627451 .647058823529412 .686274509803922 83 3 579 .60392156862745
1 .647058823529412 .686274509803922 83 3 574 .603921568627451 .647058823529412 .
686274509803922 83 3 570 .603921568627451 .647058823529412 .686274509803922 83 3
 560 .603921568627451 .647058823529412 .686274509803922 15 37 352 0 39 252 249 5
0 558 2 0 252 0 467 0 +.01782716446627535 .01782716446627535 .003 0 0 1 1 0 0 50
 467 667 0 439 558 465 0 +.01782716446627535 .01782716446627535 0 0 0 1 1 0 0 17
 39 0 37 30 157 151 436 370 0 0 -17 157 0 37 39 38 141 155 442 0 436 -17 38 0 37
 157 30 202 146 262 0 155 -17 146 0 144 140 205 11 38 262 0 0 +83 3 554 .6039215
68627451 .647058823529412 .686274509803922 81 1 535 1007 33 534 0 0 342 346 708
 82 3 540 6 59 1 81 1 342 1006 33 340 0 0 258 535 709 82 3 708 6 58 1 81 1 258 1
005 33 240 0 0 349 342 710 82 3 709 6 57 1 81 1 349 1004 33 242 0 0 267 258 711
 82 3 710 6 56 1 81 1 267 1003 33 262 0 0 265 349 712 82 3 711 6 55 1 81 1 265 1
002 33 352 0 0 261 267 713 82 3 712 6 54 1 82 3 713 6 53 1 79 9 539 BTI/DetId81
 1 532 997 33 530 0 0 338 334 714 81 1 338 996 33 336 0 0 518 532 715 81 1 334 9
98 33 332 0 0 532 529 716 82 3 714 6 48 1 81 1 529 999 33 527 0 0 334 264 717 82
 3 716 6 49 1 81 1 264 1000 33 350 0 0 529 261 718 82 3 717 6 50 1 82 3 718 6 51
 1 81 1 518 995 33 516 0 0 322 338 719 82 3 715 6 47 1 81 1 322 994 33 320 0 0 5
15 518 720 82 3 719 6 46 1 81 1 515 993 33 442 0 0 318 322 721 82 3 720 6 45 1 8
1 1 318 992 33 316 0 0 525 515 722 82 3 721 6 44 1 81 1 525 991 33 523 0 0 330 3
18 723 82 3 722 6 43 1 81 1 330 990 33 328 0 0 522 525 724 82 3 723 6 42 1 81 1
 522 989 33 520 0 0 326 330 725 82 3 724 6 41 1 81 1 326 988 33 324 0 0 500 522
 726 82 3 725 6 40 1 81 1 500 987 33 498 0 0 302 326 727 82 3 726 6 39 1 81 1 30
2 986 33 300 0 0 497 500 728 82 3 727 6 38 1 81 1 497 985 33 491 0 0 298 302 729
 82 3 728 6 37 1 81 1 298 984 33 296 0 0 490 497 730 82 3 729 6 36 1 81 1 490 98
3 33 487 0 0 294 298 731 82 3 730 6 35 1 81 1 294 982 33 292 0 0 508 490 732 82
 3 731 6 34 1 81 1 508 981 33 506 0 0 310 294 733 82 3 732 6 33 1 81 1 310 980 3
3 308 0 0 512 508 734 82 3 733 6 32 1 81 1 512 979 33 510 0 0 314 310 735 82 3 7
34 6 31 1 81 1 314 978 33 312 0 0 493 512 736 82 3 735 6 30 1 81 1 493 977 33 37
0 0 0 286 314 737 82 3 736 6 29 1 81 1 286 976 33 284 0 0 486 493 738 82 3 737 6
 28 1 82 3 738 6 27 1 81 1 504 973 33 502 0 0 306 290 739 81 1 306 972 33 304 0
 0 389 504 740 81 1 290 974 33 288 0 0 504 486 741 82 3 739 6 24 1 82 3 741 6 25
 1 81 1 389 971 33 387 0 0 375 306 742 82 3 740 6 23 1 81 1 375 970 33 138 0 0 3
81 389 743 82 3 742 6 22 1 81 1 381 969 33 379 0 0 385 375 744 82 3 743 6 21 1 8
1 1 385 968 33 383 0 0 378 381 745 82 3 744 6 20 1 81 1 378 967 33 247 0 0 246 3
85 746 82 3 745 6 19 1 81 1 246 966 33 237 0 0 372 378 747 82 3 746 6 18 1 81 1
 372 965 33 147 0 0 394 246 748 82 3 747 6 17 1 81 1 394 964 33 392 0 0 407 372
 749 82 3 748 6 16 1 81 1 407 963 33 395 0 0 405 394 750 82 3 749 6 15 1 81 1 40
5 962 33 374 0 0 402 407 751 82 3 750 6 14 1 81 1 402 961 33 400 0 0 419 405 752
 82 3 751 6 13 1 81 1 419 960 33 417 0 0 427 402 753 82 3 752 6 12 1 81 1 427 95
9 33 421 0 0 25 419 754 82 3 753 6 11 1 81 1 25 958 33 10 0 0 412 427 755 82 3 7
54 6 10 1 81 1 412 957 33 27 0 0 416 25 756 82 3 755 6 9 1 81 1 416 956 33 391 0
 0 410 412 757 82 3 756 6 8 1 81 1 410 955 33 403 0 0 428 416 758 82 3 757 6 7 1
 81 1 428 954 33 396 0 0 425 410 759 82 3 758 6 6 1 81 1 425 953 33 411 0 0 429
 428 760 82 3 759 6 5 1 82 3 760 6 4 1 82 3 489 6 26 1 17 251 0 249 484 250 160
 137 268 0 482 -17 137 0 135 132 165 31 251 268 0 0 +83 3 474 .603921568627451 .
647058823529412 .686274509803922 83 3 460 .603921568627451 .647058823529412 .686
274509803922 83 3 450 .603921568627451 .647058823529412 .686274509803922 81 1 43
0 951 33 20 0 0 423 429 761 81 1 423 950 33 420 0 0 399 430 762 82 3 761 6 2 1 8
1 1 399 949 33 397 0 0 219 423 763 82 3 762 6 1 1 81 1 219 948 33 217 0 0 114 39
9 764 82 3 763 6 0 1 81 1 114 947 33 112 0 0 43 219 765 82 3 764 6 45 0 81 1 43
 946 33 31 0 0 131 114 766 82 3 765 6 44 0 82 3 766 6 43 0 17 42 0 432 40 148 11
 140 147 0 146 -82 3 431 6 3 1 82 3 266 6 52 1 81 1 35 937 33 128 0 0 29 231 767
 81 1 126 939 33 124 0 0 231 229 768 82 3 233 6 35 0 81 1 229 940 33 228 0 0 126
 118 769 82 3 768 6 36 0 81 1 118 941 33 116 0 0 229 223 770 82 3 769 6 37 0 81
 1 223 942 33 221 0 0 118 122 771 82 3 770 6 38 0 81 1 122 943 33 120 0 0 223 13
3 772 82 3 771 6 39 0 81 1 133 944 33 225 0 0 122 131 773 82 3 772 6 40 0 82 3 7
73 6 41 0 82 3 767 6 34 0 81 1 142 934 33 214 0 0 110 34 774 81 1 110 933 33 108
 0 0 200 142 775 82 3 774 6 31 0 81 1 200 932 33 198 0 0 94 110 776 82 3 775 6 3
0 0 81 1 94 931 33 92 0 0 204 200 777 82 3 776 6 29 0 81 1 204 930 33 202 0 0 98
 94 778 82 3 777 6 28 0 81 1 98 929 33 96 0 0 208 204 779 82 3 778 6 27 0 81 1 2
08 928 33 206 0 0 102 98 780 82 3 779 6 26 0 81 1 102 927 33 100 0 0 180 208 781
 82 3 780 6 25 0 81 1 180 926 33 178 0 0 75 102 782 82 3 781 6 24 0 81 1 75 925
 33 73 0 0 168 180 783 82 3 782 6 23 0 81 1 168 924 33 166 0 0 63 75 784 82 3 78
3 6 22 0 81 1 63 923 33 61 0 0 188 168 785 82 3 784 6 21 0 81 1 188 922 33 186 0
 0 83 63 786 82 3 785 6 20 0 81 1 83 921 33 81 0 0 192 188 787 82 3 786 6 19 0 8
1 1 192 920 33 190 0 0 86 83 788 82 3 787 6 18 0 81 1 86 919 33 84 0 0 184 192 7
89 82 3 788 6 17 0 81 1 184 918 33 182 0 0 79 86 790 82 3 789 6 16 0 81 1 79 917
 33 77 0 0 196 184 791 82 3 790 6 15 0 81 1 196 916 33 194 0 0 90 79 792 82 3 79
1 6 14 0 81 1 90 915 33 88 0 0 164 196 793 82 3 792 6 13 0 81 1 164 914 33 160 0
 0 59 90 794 82 3 793 6 12 0 81 1 59 913 33 57 0 0 172 164 795 82 3 794 6 11 0 8
1 1 172 912 33 170 0 0 67 59 796 82 3 795 6 10 0 81 1 67 911 33 65 0 0 158 172 7
97 82 3 796 6 9 0 81 1 158 910 33 151 0 0 55 67 798 82 3 797 6 8 0 81 1 55 909 3
3 53 0 0 149 158 799 82 3 798 6 7 0 82 3 799 6 6 0 81 1 212 904 33 210 0 0 106 7
1 800 81 1 106 903 33 104 0 0 0 212 801 81 1 71 905 33 69 0 0 212 176 802 82 3 8
00 6 1 0 81 1 176 906 33 174 0 0 71 51 803 82 3 802 6 2 0 81 1 51 907 33 49 0 0
 176 149 804 82 3 803 6 3 0 82 3 804 6 4 0 82 3 801 6 0 0 82 3 153 6 5 0 82 3 14
3 6 32 0 82 3 134 6 42 0 82 3 36 6 33 0 19 17 830 0 1 0 9 5 S0 74 4 CI16 index_m
ap_offset0 0 1 dCCZ20 15 5 0 0 668 672 13 2 550 0 0 0 0 0 0 0 0 0 0 0 0 0 0 0 80
 1 12 446 805 8040 0 0 0 0 3 5 0 0 0 TTTFFFFFFFFFFF2 83 3 14 .603921568627451 .6
47058823529412 .686274509803922 79 17 805 SDL/TYSA_COLOUR_21 0 
