**ABCDEFGHIJKLMNOPQRSTUVWXYZabcdefghijklmnopqrstuvwxyz**************************
**PARASOLID !"#$%&'()*+,-./:;<=>?@[\]^_`{|}~0123456789**************************
**PART1;
MC=unknown;
MC_MODEL=unknown;
MC_ID=unknown;
OS=unknown;
OS_RELEASE=unknown;
FRU=Parasolid 30.0.226;
APPL=Onshape;
SITE=unknown;
USER=unknown;
FORMAT=text;
GUISE=transmit;
KEY=BTGapi::writeModels_.xmt;
FILE=BTGapi::writeModels_.xmt;
DATE=2017-11-03T14:22:08 (UTC);
**PART2;
SCH=SCH_3000226_30000;
USFLD_SIZE=0;
**PART3;
**END_OF_HEADER*****************************************************************
T51 : TRANSMIT FILE created by modeller version 300022623 SCH_3000226_30000_1300
6205 0 12 33 CCCCCCI4 mesh1006 0 I8 polyline1008 0 CCCCCCCDI5 owner1040 0 CCCCCC
I13 boundary_mesh1006 0 I17 boundary_polyline1008 0 CCCA16 index_map_offset0 0 1
 dA9 index_map82 0 A17 node_id_index_map82 0 A20 schema_embedding_map82 0 A5 chi
ld12 0 A14 lowest_node_id0 0 1 dZ1 4174 2 3 0 0 0 0 0 0 1e3 1e-8 0 4 0 1 0 1 1 5
 6 7 8 0 0 9 10 11 0 0 0 0 0 0 81 255 1 2 4127 12 1 13 0 0 0 14 70 11 CI9 list_t
ype0 0 1 uI10 notransmit0 0 1 lCCCDCCDI12 finger_index0 0 1 dI12 finger_block101
2 0 CZ3 0 4 T1 0 0 5 20 1 15 15 13 255 5 1265 0 1 0 16 0 0 17 0 50 255 6 1224 0
 18 19 0 0 +-.0525 3469446951953615e-33 .003 1 -204085114820801e-30 0 2040851148
20801e-30 1 0 30 255 7 1264 0 20 21 0 0 +-.0525 .017 .003 0 0 -1 29 255 8 3506 0
 11 22 0 .0575 -.002 5e-4 19 8 CCCCCCCA5 owner12 0 Z9 440 0 1 17 0 23 V0 16 255
 10 1100 24 ?25 0 26 27 0 0 1 18 255 11 3502 28 29 0 30 8 ?1 81 1 28 3982 31 11
 0 0 32 33 34 17 255 29 0 35 36 37 11 38 39 0 40 -18 30 3088 41 42 11 43 22 ?1 8
1 1 41 3996 31 30 0 0 44 45 46 17 42 0 47 48 49 30 50 51 0 52 -18 43 3078 53 54
 30 55 56 ?1 29 22 3092 0 30 56 8 -.0565 -.002 5e-4 29 56 3082 0 43 57 22 -.0565
 -.0025 5e-4 29 57 3072 0 55 58 56 -.057 -.0025 5e-4 18 55 3068 45 59 43 60 57 ?
1 29 58 3062 0 60 61 57 -.057 -.022 5e-4 18 60 3058 62 63 55 64 58 ?1 29 61 3052
 0 64 65 58 -.0375 -.022 5e-4 18 64 3048 33 66 60 67 61 ?1 29 65 3042 0 67 68 61
 -.0375 -.0215 5e-4 18 67 3038 44 69 64 70 65 ?1 29 68 3027 0 70 71 65 -.0575 -.
002 5e-4 18 70 3023 72 49 67 73 68 ?1 29 71 3022 0 73 74 68 -.037 -.0225 5e-4 18
 73 3018 32 75 70 76 71 ?1 29 74 2603 0 76 77 71 -.037 .0215 5e-4 18 76 2599 78
 79 73 80 74 ?1 29 77 2593 0 80 81 74 -.0375 .0215 5e-4 18 80 2589 82 83 76 84 7
7 ?1 29 81 2583 0 84 85 77 -.0375 .022 5e-4 18 84 2579 86 87 80 88 81 ?1 29 85 2
573 0 88 89 81 -.057 .022 5e-4 18 88 2569 90 91 84 92 85 ?1 29 89 2563 0 92 93 8
5 -.057 .0025 5e-4 18 92 2559 94 95 88 96 89 ?1 29 93 2548 0 96 97 89 -.0565 .00
2 5e-4 18 96 2544 98 99 92 100 93 ?1 29 97 2543 0 100 101 93 -.037 .0225 5e-4 18
 100 2539 102 103 96 104 97 ?1 29 101 2538 0 104 105 97 -.0575 .002 5e-4 18 104
 2534 106 107 100 108 101 ?1 29 105 2061 0 108 109 101 .037 .0225 5e-4 18 108 20
57 110 111 104 112 105 ?1 29 109 1681 0 112 113 105 -.0525 .017 .001 18 112 1677
 114 115 108 116 109 ?1 29 113 1671 0 116 117 109 .0525 .017 .001 18 116 1667 11
8 119 112 120 113 ?1 29 117 1656 0 120 121 113 -.0525 -.017 .001 18 120 1652 122
 123 116 124 117 ?1 29 121 431 0 124 125 117 -.0565 .002 .003 18 124 429 126 127
 120 128 121 ?1 29 125 426 0 128 129 121 -.0565 .0025 .003 18 128 424 130 131 12
4 132 125 ?1 29 129 421 0 132 133 125 -.057 .0025 .003 18 132 419 134 135 128 13
6 129 ?1 29 133 416 0 136 137 129 -.057 .022 .003 18 136 414 138 139 132 140 133
 ?1 29 137 411 0 140 141 133 -.0375 .022 .003 18 140 409 142 143 136 144 137 ?1
 29 141 406 0 144 145 137 -.0375 .0215 .003 18 144 404 146 147 140 148 141 ?1 29
 145 401 0 148 149 141 -.037 .0215 .003 18 148 399 150 151 144 152 145 ?1 29 149
 391 0 152 153 145 -.037 .0225 .003 18 152 389 154 155 148 156 149 ?1 29 153 386
 0 156 157 149 .037 .0225 .003 18 156 384 158 159 152 160 153 ?1 29 157 376 0 16
0 161 153 .037 .0215 .003 18 160 374 162 163 156 164 157 ?1 29 161 371 0 164 165
 157 .0375 .0215 .003 18 164 369 166 167 160 168 161 ?1 29 165 366 0 168 169 161
 .0375 .022 .003 18 168 364 170 171 164 172 165 ?1 29 169 361 0 172 173 165 .057
 .022 .003 18 172 359 174 175 168 176 169 ?1 29 173 356 0 176 177 169 .057 .0025
 .003 18 176 354 178 179 172 180 173 ?1 29 177 351 0 180 181 173 .0565 .0025 .00
3 18 180 349 182 183 176 184 177 ?1 29 181 346 0 184 185 177 .0565 .002 .003 18
 184 344 186 187 180 188 181 ?1 29 185 336 0 188 189 181 .0575 .002 .003 18 188
 334 190 191 184 192 185 ?1 29 189 331 0 192 193 185 .0575 -.002 .003 18 192 329
 194 195 188 196 189 ?1 29 193 321 0 196 197 189 .0565 -.002 .003 18 196 319 198
 199 192 200 193 ?1 29 197 316 0 200 201 193 .0565 -.0025 .003 18 200 314 202 20
3 196 204 197 ?1 29 201 311 0 204 205 197 .057 -.0025 .003 18 204 309 206 207 20
0 208 201 ?1 29 205 306 0 208 209 201 .057 -.022 .003 18 208 304 210 211 204 212
 205 ?1 29 209 301 0 212 213 205 .0375 -.022 .003 18 212 299 214 215 208 216 209
 ?1 29 213 296 0 216 217 209 .0375 -.0215 .003 18 216 294 218 219 212 220 213 ?1
 29 217 291 0 220 221 213 .037 -.0215 .003 18 220 289 222 223 216 224 217 ?1 29
 221 281 0 224 225 217 .037 -.0225 .003 18 224 279 226 227 220 228 221 ?1 29 225
 276 0 228 229 221 -.037 -.0225 .003 18 228 274 230 231 224 232 225 ?1 29 229 26
6 0 232 233 225 -.037 -.0215 .003 18 232 264 234 235 228 236 229 ?1 29 233 261 0
 236 237 229 -.0375 -.0215 .003 18 236 259 238 239 232 240 233 ?1 29 237 256 0 2
40 241 233 -.0375 -.022 .003 18 240 254 242 243 236 244 237 ?1 29 241 251 0 244
 245 237 -.057 -.022 .003 18 244 249 246 247 240 248 241 ?1 29 245 246 0 248 249
 241 -.057 -.0025 .003 18 248 244 250 251 244 252 245 ?1 29 249 241 0 252 253 24
5 -.0565 -.0025 .003 18 252 239 254 255 248 256 249 ?1 29 253 236 0 256 257 249
 -.0565 -.002 .003 18 256 234 258 48 252 259 253 ?1 29 257 226 0 259 260 253 -.0
575 -.002 .003 18 259 224 261 262 256 263 257 ?1 29 260 221 0 263 264 257 -.0575
 .002 .003 18 263 219 265 266 259 267 260 ?1 29 264 216 0 267 268 260 -.0525 -.0
17 .003 18 267 214 269 270 263 271 264 ?1 29 268 211 0 271 272 264 .0525 -.017 .
003 18 271 209 273 274 267 275 268 ?1 29 272 206 0 275 276 268 .0525 .017 .003 1
8 275 204 277 278 271 279 272 ?1 29 276 201 0 279 280 272 -.0525 .017 .003 18 27
9 199 281 282 275 283 276 ?1 29 280 1843 0 283 284 276 .0525 -.017 .001 18 283 1
792 285 286 279 287 280 ?1 29 284 2470 0 288 289 280 .0575 .0225 0 18 288 2340 2
90 291 292 293 284 ?1 29 289 2476 0 287 294 284 .057 .022 5e-4 18 287 2352 295 2
96 283 297 289 ?1 29 294 2477 0 297 298 289 .057 .0025 5e-4 18 297 2356 299 300
 287 301 294 ?1 29 298 2478 0 301 302 294 .0575 .002 5e-4 18 301 2366 303 304 29
7 305 298 ?1 29 302 2479 0 305 306 298 .0375 .022 5e-4 18 305 2348 307 308 301 3
09 302 ?1 29 306 2480 0 309 310 302 .0575 .0225 5e-4 18 309 2334 311 312 305 313
 306 ?1 29 310 2482 0 313 314 306 .0565 .0025 5e-4 18 313 2372 315 316 309 317 3
10 ?1 29 314 2483 0 317 318 310 .0565 .002 5e-4 18 317 2362 319 320 313 321 314
 ?1 29 318 2484 0 321 322 314 .037 .0215 5e-4 18 321 2342 323 324 317 292 318 ?1
 29 322 2485 0 292 325 318 .0375 .0215 5e-4 18 292 2370 326 327 321 288 322 ?1 2
9 325 2950 0 328 329 322 -.0575 .0225 0 18 328 2839 330 331 332 333 325 ?1 29 32
9 2955 0 293 334 325 -.0565 .0025 5e-4 18 293 2841 335 336 288 332 329 ?1 29 334
 2960 0 332 337 329 -.0575 .0225 5e-4 18 332 2835 338 339 293 328 334 ?1 29 337
 3430 0 340 341 334 -.0575 -.0225 0 18 340 3313 342 343 344 345 337 ?1 29 341 34
40 0 333 346 337 -.0575 -.0225 5e-4 18 333 3327 347 348 328 344 341 ?1 29 346 34
45 0 344 349 341 -.037 -.0215 5e-4 18 344 3331 350 351 333 340 346 ?1 29 349 391
2 0 352 353 346 .0575 -.0225 0 18 352 3785 354 355 356 0 349 ?1 29 353 3921 0 34
5 357 349 .037 -.0225 5e-4 18 345 3781 358 359 340 360 353 ?1 29 357 3922 0 360
 361 353 .0575 -.0225 5e-4 18 360 3809 362 37 345 363 357 ?1 29 361 3923 0 363 3
64 357 .057 -.022 5e-4 18 363 3797 365 366 360 367 361 ?1 29 364 3924 0 367 368
 361 .0375 -.022 5e-4 18 367 3813 369 370 363 371 364 ?1 29 368 3925 0 371 372 3
64 .057 -.0025 5e-4 18 371 3793 373 374 367 375 368 ?1 29 372 3927 0 375 376 368
 .0565 -.002 5e-4 18 375 3787 377 36 371 378 372 ?1 29 376 3928 0 378 379 372 .0
565 -.0025 5e-4 18 378 3811 380 381 375 382 376 ?1 29 379 3929 0 382 383 376 .03
75 -.0215 5e-4 18 382 3815 384 385 378 356 379 ?1 29 383 3930 0 356 0 379 .037 -
.0215 5e-4 18 356 3805 386 387 382 352 383 ?1 81 1 386 4010 31 356 0 0 315 384 3
88 17 387 0 35 389 385 356 390 391 0 392 -15 255 35 3862 0 389 393 0 17 389 0 35
 37 387 345 392 394 0 395 +17 385 0 35 387 370 382 396 397 0 390 +17 390 0 398 3
99 400 382 387 391 0 401 +16 391 3723 402 ?390 397 0 403 0 0 1 17 392 0 404 223
 395 356 389 394 0 400 -15 404 3583 0 392 405 0 17 223 0 404 406 392 220 400 407
 0 408 -17 395 0 404 392 406 345 409 410 0 0 +16 394 3733 411 ?389 412 413 414 0
 0 1 17 400 0 398 390 408 356 223 407 0 0 +15 398 1151 0 400 415 0 17 408 0 398
 400 399 220 219 416 0 417 -16 407 1089 418 ?400 410 419 420 0 0 1 81 1 418 4050
 31 407 0 0 421 422 423 16 410 1090 424 ?395 425 407 426 0 0 1 16 419 1088 422 ?
401 407 427 428 0 0 1 30 420 1249 0 407 428 426 0 +.037 -.0215 .003 0 0 -1 30 42
8 1248 0 419 429 420 0 +.0375 -.0215 .003 0 0 -1 30 426 1250 0 410 420 430 0 +.0
37 -.0225 .003 0 0 -1 30 430 1251 0 425 426 431 0 +-.037 -.0225 .003 0 0 -1 16 4
25 1091 432 ?433 434 410 430 0 0 1 30 431 1252 0 434 430 435 0 +-.037 -.0215 .00
3 0 0 -1 16 434 1092 436 ?351 437 425 431 0 0 1 30 435 1253 0 437 431 438 0 +-.0
375 -.0215 .003 0 0 -1 16 437 1093 439 ?440 441 434 435 0 0 1 30 438 1254 0 441
 435 442 0 +-.0375 -.022 .003 0 0 -1 16 441 1094 443 ?444 445 437 438 0 0 1 30 4
42 1255 0 445 438 446 0 +-.057 -.022 .003 0 0 -1 16 445 1095 447 ?448 449 441 44
2 0 0 1 30 446 1256 0 449 442 450 0 +-.057 -.0025 .003 0 0 -1 16 449 1096 451 ?4
52 453 445 446 0 0 1 30 450 1257 0 453 446 454 0 +-.0565 -.0025 .003 0 0 -1 16 4
53 1097 455 ?456 457 449 450 0 0 1 30 454 1258 0 457 450 458 0 +-.0565 -.002 .00
3 0 0 -1 16 457 1098 459 ?52 26 453 454 0 0 1 30 458 1259 0 26 454 27 0 +-.0575
 -.002 .003 0 0 -1 16 26 1099 460 ?49 10 457 458 0 0 1 30 27 1260 0 10 458 461 0
 +-.0575 .002 .003 0 0 -1 30 461 1261 0 462 27 463 0 +-.0525 -.017 .003 0 0 -1 1
6 462 1101 464 ?465 466 467 461 0 0 1 30 463 1262 0 466 461 21 0 +.0525 -.017 .0
03 0 0 -1 16 466 1102 468 ?286 469 462 463 0 0 1 30 21 1263 0 469 463 7 0 +.0525
 .017 .003 0 0 -1 16 469 1103 470 ?471 20 466 21 0 0 1 81 1 470 1882 31 469 0 0
 472 464 473 17 471 0 474 475 476 116 477 469 0 478 +16 20 1104 472 ?479 480 469
 7 0 0 1 81 1 472 1881 31 20 0 0 285 470 481 17 479 0 482 119 483 112 282 20 0 4
84 +16 480 1065 485 ?486 487 20 488 0 0 1 81 1 485 4039 31 480 0 0 455 489 490 1
7 486 0 491 107 492 96 127 480 0 493 +16 487 1066 494 ?336 495 480 496 0 0 1 30
 488 1225 0 480 497 496 0 +-.0565 .002 .003 0 0 -1 30 497 992 0 498 499 488 0 +0
 .0225 0 1 0 0 30 496 1226 0 487 488 500 0 +-.0565 .0025 .003 0 0 -1 30 500 1227
 0 495 496 501 0 +-.057 .0025 .003 0 0 -1 16 495 1067 489 ?502 503 487 500 0 0 1
 30 501 1228 0 503 500 504 0 +-.057 .022 .003 0 0 -1 16 503 1068 505 ?506 507 49
5 501 0 0 1 30 504 1229 0 507 501 508 0 +-.0375 .022 .003 0 0 -1 16 507 1069 509
 ?510 511 503 504 0 0 1 30 508 1230 0 511 504 512 0 +-.0375 .0215 .003 0 0 -1 16
 511 1070 513 ?514 515 507 508 0 0 1 30 512 1231 0 515 508 516 0 +-.037 .0215 .0
03 0 0 -1 16 515 1071 517 ?518 519 511 512 0 0 1 30 516 1232 0 519 512 520 0 +-.
037 .0225 .003 0 0 -1 16 519 1072 521 ?103 522 515 516 0 0 1 30 520 1233 0 522 5
16 523 0 +.037 .0225 .003 0 0 -1 16 522 1073 524 ?525 526 519 520 0 0 1 30 523 1
234 0 526 520 527 0 +.037 .0215 .003 0 0 -1 16 526 1074 528 ?529 530 522 523 0 0
 1 30 527 1235 0 530 523 531 0 +.0375 .0215 .003 0 0 -1 16 530 1075 532 ?533 534
 526 527 0 0 1 30 531 1236 0 534 527 535 0 +.0375 .022 .003 0 0 -1 16 534 1076 5
36 ?537 538 530 531 0 0 1 30 535 1237 0 538 531 539 0 +.057 .022 .003 0 0 -1 16
 538 1077 540 ?541 542 534 535 0 0 1 30 539 1238 0 542 535 543 0 +.057 .0025 .00
3 0 0 -1 16 542 1078 544 ?545 546 538 539 0 0 1 30 543 1239 0 546 539 547 0 +.05
65 .0025 .003 0 0 -1 16 546 1079 421 ?548 549 542 543 0 0 1 30 547 1240 0 549 54
3 550 0 +.0565 .002 .003 0 0 -1 16 549 1080 551 ?552 553 546 547 0 0 1 30 550 12
41 0 553 547 554 0 +.0575 .002 .003 0 0 -1 16 553 1081 555 ?556 557 549 550 0 0
 1 30 554 1242 0 557 550 558 0 +.0575 -.002 .003 0 0 -1 16 557 1082 559 ?560 561
 553 554 0 0 1 30 558 1243 0 561 554 562 0 +.0565 -.002 .003 0 0 -1 16 561 1083
 563 ?564 565 557 558 0 0 1 30 562 1244 0 565 558 566 0 +.0565 -.0025 .003 0 0 -
1 16 565 1084 567 ?568 569 561 562 0 0 1 30 566 1245 0 569 562 570 0 +.057 -.002
5 .003 0 0 -1 16 569 1085 571 ?572 573 565 566 0 0 1 30 570 1246 0 573 566 429 0
 +.057 -.022 .003 0 0 -1 16 573 1086 574 ?575 427 569 570 0 0 1 30 429 1247 0 42
7 570 428 0 +.0375 -.022 .003 0 0 -1 16 427 1087 576 ?577 419 573 429 0 0 1 81 1
 576 4052 31 427 0 0 422 563 578 17 577 0 579 580 581 367 215 427 0 0 +15 579 35
58 0 580 582 0 17 580 0 579 211 577 363 370 583 0 575 -17 581 0 579 577 211 212
 584 585 0 0 +17 215 0 586 587 396 212 577 427 0 588 -15 586 3568 0 396 589 0 17
 587 0 586 401 215 216 588 590 0 0 +17 396 0 586 215 401 367 385 397 0 577 -17 5
88 0 591 584 219 212 587 590 0 581 -15 591 6 0 592 593 0 17 584 0 591 207 588 20
8 581 585 0 0 -17 219 0 591 588 417 216 408 416 0 399 +16 590 87 594 ?587 585 41
6 595 0 0 1 81 1 594 1591 31 590 0 0 596 597 598 16 585 91 599 ?581 600 590 601
 0 0 1 16 416 83 596 ?219 590 602 603 0 0 1 30 595 88 0 590 603 601 0 +.0375 -.0
2175 .003 0 1 0 30 603 84 0 416 604 595 0 +.03725 -.0215 .003 1 0 0 30 601 92 0
 585 595 605 0 +.04725 -.022 .003 -1 -177920356510442e-30 0 30 605 96 0 600 601
 606 0 +.057 -.01225 .003 0 1 0 16 600 95 607 ?207 608 585 605 0 0 1 30 606 100
 0 608 605 609 0 +.05675 -.0025 .003 -1 0 0 16 608 99 597 ?203 610 600 606 0 0 1
 30 609 104 0 610 606 611 0 +.0565 -.00225 .003 0 -1 0 16 610 103 612 ?613 614 6
08 609 0 0 1 30 611 108 0 614 609 615 0 +.05675 -.002 .003 -1 0 0 16 614 107 616
 ?617 618 610 611 0 0 1 30 615 116 0 618 611 619 0 +.0575 0 .003 0 -1 0 16 618 1
15 620 ?621 622 614 615 0 0 1 30 619 120 0 622 615 623 0 +.05725 .002 .003 -1 0
 0 16 622 119 624 ?187 625 618 619 0 0 1 30 623 128 0 625 619 626 0 +.0565 .0022
5 .003 0 1 0 16 625 127 627 ?183 628 622 623 0 0 1 30 626 132 0 628 623 629 0 +.
05675 .0025 .003 -1 0 0 16 628 131 630 ?631 632 625 626 0 0 1 30 629 136 0 632 6
26 633 0 +.057 .01225 .003 0 1 0 16 632 135 634 ?175 635 628 629 0 0 1 30 633 14
0 0 635 629 636 0 +.04725 .022 .003 -1 -177920356510442e-30 0 16 635 139 637 ?17
1 638 632 633 0 0 1 30 636 144 0 638 633 639 0 +.0375 .02175 .003 0 -1 0 16 638
 143 640 ?167 641 635 636 0 0 1 30 639 148 0 641 636 642 0 +.03725 .0215 .003 1
 0 0 16 641 147 643 ?644 645 638 639 0 0 1 30 642 152 0 645 639 646 0 +.037 .021
75 .003 0 -1 0 16 645 151 647 ?648 649 641 642 0 0 1 30 646 160 0 649 642 650 0
 +0 .0225 .003 1 0 0 16 649 159 651 ?652 653 645 646 0 0 1 30 650 164 0 653 646
 654 0 +-.037 .02225 .003 0 1 0 16 653 163 655 ?656 657 649 650 0 0 1 30 654 172
 0 657 650 658 0 +-.03725 .0215 .003 -1 0 0 16 657 171 659 ?147 660 653 654 0 0
 1 30 658 176 0 660 654 661 0 +-.0375 .02175 .003 0 -1 0 16 660 175 662 ?663 664
 657 658 0 0 1 30 661 180 0 664 658 665 0 +-.04725 .022 .003 1 177920356510442e-
30 0 16 664 179 666 ?667 668 660 661 0 0 1 30 665 184 0 668 661 669 0 +-.057 .01
225 .003 0 -1 0 16 668 183 670 ?135 671 664 665 0 0 1 30 669 188 0 671 665 672 0
 +-.05675 .0025 .003 1 0 0 16 671 187 673 ?131 467 668 669 0 0 1 30 672 192 0 46
7 669 674 0 +-.0565 .00225 .003 0 1 0 16 467 191 675 ?676 462 671 672 0 0 1 30 6
74 1019 0 677 672 678 0 +-.0575 0 0 0 -1 0 16 677 798 679 ?343 680 681 674 0 0 1
 30 678 1010 0 680 674 499 0 +0 -.0225 0 1 0 0 16 680 758 682 ?355 683 677 678 0
 0 1 30 499 1001 0 683 678 497 0 +.0575 0 0 0 -1 0 16 683 718 684 ?685 498 680 4
99 0 0 1 81 1 684 4019 31 683 0 0 679 521 686 17 685 0 687 688 689 352 291 683 0
 690 +16 498 678 691 ?689 692 683 497 0 0 1 81 1 691 4016 31 498 0 0 380 682 693
 17 689 0 687 685 331 288 694 498 0 695 +16 692 7 696 ?697 698 498 699 0 0 1 81
 1 696 1529 31 692 0 0 700 701 702 17 697 0 703 465 282 267 704 692 0 705 +16 69
8 11 706 ?278 707 692 708 0 0 1 30 699 8 0 692 709 708 0 +-.0525 346944695195361
5e-33 .003 -204085114820801e-30 -1 0 30 709 1834 0 681 710 699 0 +.0525 34694469
51953615e-33 .001 -204085114820801e-30 -1 0 30 708 12 0 698 699 711 0 +693889390
390723e-32 .017 .003 1 0 0 30 711 16 0 707 708 712 0 +.0525 3469446951953615e-33
 .003 -204085114820801e-30 -1 0 16 707 15 701 ?274 713 698 711 0 0 1 30 712 20 0
 713 711 714 0 +0 -.017 .003 1 0 0 16 713 19 700 ?715 716 707 712 0 0 1 30 714 2
4 0 716 712 717 0 +-.05725 .002 .003 -1 0 0 16 716 23 718 ?592 719 713 714 0 0 1
 30 717 28 0 719 714 720 0 +-.0575 0 .003 0 -1 0 16 719 27 721 ?262 722 716 717
 0 0 1 30 720 32 0 722 717 723 0 +-.05725 -.002 .003 -1 0 0 16 722 31 724 ?725 7
26 719 720 0 0 1 30 723 40 0 726 720 727 0 +-.0565 -.00225 .003 0 -1 0 16 726 39
 728 ?255 729 722 723 0 0 1 30 727 44 0 729 723 730 0 +-.05675 -.0025 .003 1 0 0
 16 729 43 731 ?732 733 726 727 0 0 1 30 730 48 0 733 727 734 0 +-.057 -.01225 .
003 0 1 0 16 733 47 735 ?736 737 729 730 0 0 1 30 734 52 0 737 730 738 0 +-.0472
5 -.022 .003 -1 -1779203565104415e-31 0 16 737 51 739 ?740 741 733 734 0 0 1 30
 738 56 0 741 734 742 0 +-.0375 -.02175 .003 0 1 0 16 741 55 743 ?239 744 737 73
8 0 0 1 30 742 60 0 744 738 745 0 +-.03725 -.0215 .003 -1 0 0 16 744 59 746 ?747
 748 741 742 0 0 1 30 745 64 0 748 742 749 0 +-.037 -.02175 .003 0 1 0 16 748 63
 750 ?751 752 744 745 0 0 1 30 749 72 0 752 745 604 0 +0 -.0225 .003 1 0 0 16 75
2 71 753 ?227 602 748 749 0 0 1 30 604 76 0 602 749 603 0 +.037 -.02225 .003 0 -
1 0 16 602 75 754 ?406 416 752 604 0 0 1 81 1 754 1559 31 602 0 0 599 607 755 17
 406 0 404 395 223 224 417 602 0 0 +17 417 0 591 219 227 220 406 602 0 0 -17 227
 0 591 417 756 224 757 752 0 409 +17 756 0 591 227 758 228 751 748 0 0 -17 757 0
 759 433 409 228 227 752 0 756 -17 409 0 759 757 359 224 395 410 0 406 -15 759 1
155 0 355 760 0 17 359 0 759 409 761 345 37 413 0 389 -17 761 0 759 359 355 360
 690 412 0 38 -17 37 0 35 29 389 360 359 413 0 761 +16 413 3738 762 ?37 394 39 7
63 0 0 1 81 1 762 3740 31 413 0 0 764 354 765 16 39 3657 766 ?38 413 583 767 0 0
 1 30 763 3902 0 413 767 414 0 +.04725 -.0225 5e-4 1 0 0 30 767 3903 0 39 768 76
3 0 +.0575 -.02225 5e-4 0 -1 0 30 414 3901 0 394 763 769 0 +.037 -.02225 5e-4 0
 -1 0 30 769 3889 0 412 414 770 0 +.0575 -.0225 5e-4 0 0 -1 16 412 3660 764 ?690
 771 394 769 0 0 1 30 770 3426 0 771 769 772 0 +-.0375 -.02175 5e-4 0 1 0 16 771
 3155 773 ?69 774 412 770 0 0 1 30 772 3425 0 774 770 775 0 +-.03725 -.0215 5e-4
 -1 0 0 16 774 3280 776 ?777 778 771 772 0 0 1 30 775 3424 0 778 772 779 0 +-.05
65 -.00225 5e-4 0 -1 0 16 778 3195 780 ?54 781 774 775 0 0 1 30 779 3423 0 781 7
75 782 0 +-.05675 -.0025 5e-4 1 0 0 16 781 3259 783 ?784 785 778 779 0 0 1 30 78
2 3422 0 785 779 786 0 +-.04725 -.022 5e-4 -1 -1779203565104415e-31 0 16 785 324
9 787 ?788 789 781 782 0 0 1 30 786 3421 0 789 782 790 0 +-.037 -.02225 5e-4 0 1
 0 16 789 3275 791 ?792 793 785 786 0 0 1 30 790 3420 0 793 786 794 0 +-.04725 -
.0225 5e-4 1 0 0 16 793 3272 795 ?796 797 789 790 0 0 1 30 794 3419 0 797 790 79
8 0 +-.057 -.01225 5e-4 0 1 0 16 797 3254 799 ?800 801 793 794 0 0 1 30 798 3418
 0 801 794 802 0 +-.0575 -.012 5e-4 0 -1 0 16 801 3269 803 ?348 51 797 798 0 0 1
 30 802 3417 0 51 798 804 0 +-.05725 -.002 5e-4 -1 0 0 16 51 3264 805 ?50 806 80
1 802 0 0 1 30 804 3403 0 806 802 807 0 +-.0575 -.0225 5e-4 0 0 -1 16 806 3226 8
08 ?809 810 51 804 0 0 1 30 807 2942 0 810 804 811 0 +-.057 .01225 5e-4 0 -1 0 1
6 810 2701 812 ?95 813 806 807 0 0 1 30 811 2941 0 813 807 814 0 +-.05725 .0225
 5e-4 1 0 0 16 813 2751 815 ?816 817 810 811 0 0 1 30 814 2940 0 817 811 818 0 +
-.0575 .01225 5e-4 0 -1 0 16 817 2785 819 ?820 821 813 814 0 0 1 30 818 2939 0 8
21 814 822 0 +-.05725 .002 5e-4 -1 0 0 16 821 2671 823 ?107 824 817 818 0 0 1 30
 822 2938 0 824 818 825 0 +-.04725 .022 5e-4 1 177920356510442e-30 0 16 824 2770
 826 ?827 828 821 822 0 0 1 30 825 2937 0 828 822 829 0 +-.037 .02225 5e-4 0 1 0
 16 828 2780 830 ?831 832 824 825 0 0 1 30 829 2936 0 832 825 833 0 +-.05675 .00
25 5e-4 1 0 0 16 832 2691 834 ?835 836 828 829 0 0 1 30 833 2935 0 836 829 837 0
 +-.0565 .00225 5e-4 0 1 0 16 836 2765 838 ?839 840 832 833 0 0 1 30 837 2934 0
 840 833 841 0 +-.0375 .02175 5e-4 0 -1 0 16 840 2775 842 ?843 844 836 837 0 0 1
 30 841 2933 0 844 837 845 0 +-.03725 .0215 5e-4 -1 0 0 16 844 2731 846 ?83 847
 840 841 0 0 1 30 845 2915 0 847 841 848 0 +-.0575 .0225 5e-4 0 0 -1 16 847 2762
 849 ?850 851 844 845 0 0 1 30 848 2465 0 851 845 852 0 +.03725 .0215 5e-4 1 0 0
 16 851 2288 853 ?327 854 847 848 0 0 1 30 852 2464 0 854 848 855 0 +.0375 .0217
5 5e-4 0 -1 0 16 854 2228 856 ?857 858 851 852 0 0 1 30 855 2463 0 858 852 859 0
 +.0565 .00225 5e-4 0 1 0 16 858 2268 860 ?861 862 854 855 0 0 1 30 859 2462 0 8
62 855 863 0 +.05675 .0025 5e-4 -1 0 0 16 862 2293 864 ?316 865 858 859 0 0 1 30
 863 2461 0 865 859 866 0 +.037 .02225 5e-4 0 1 0 16 865 2208 867 ?868 869 862 8
63 0 0 1 30 866 2460 0 869 863 870 0 +.04725 .0225 5e-4 1 0 0 16 869 2202 871 ?8
72 873 865 866 0 0 1 30 870 2459 0 873 866 874 0 +.04725 .022 5e-4 -1 -177920356
510442e-30 0 16 873 2238 875 ?876 877 869 870 0 0 1 30 874 2458 0 877 870 878 0
 +.05725 .002 5e-4 -1 0 0 16 877 2278 879 ?880 881 873 874 0 0 1 30 878 2457 0 8
81 874 882 0 +.057 .01225 5e-4 0 1 0 16 881 2248 883 ?884 885 877 878 0 0 1 30 8
82 2456 0 885 878 886 0 +.0575 .012 5e-4 0 -1 0 16 885 2194 887 ?888 889 881 882
 0 0 1 30 886 2441 0 889 882 890 0 +.0575 .0225 5e-4 0 0 -1 16 889 2205 891 ?695
 892 885 886 0 0 1 30 890 1837 0 892 886 893 0 +693889390390723e-32 .017 .001 1
 0 0 16 892 1718 894 ?119 895 889 890 0 0 1 30 893 1836 0 895 890 710 0 +-.0525
 3469446951953615e-33 .001 -204085114820801e-30 -1 0 16 895 1758 896 ?897 898 89
2 893 0 0 1 30 710 1835 0 898 893 709 0 +0 -.017 .001 1 0 0 16 898 1763 899 ?900
 681 895 710 0 0 1 81 1 899 1886 31 898 0 0 894 896 901 17 900 0 902 478 897 283
 123 898 0 0 +16 681 1748 903 ?475 677 898 709 0 0 1 81 1 903 1888 31 681 0 0 89
6 904 905 17 475 0 474 906 471 283 478 681 0 900 +15 474 1179 0 471 907 0 17 906
 0 474 476 475 271 286 466 0 715 -17 478 0 902 484 900 116 475 681 0 0 -15 902 1
813 0 484 908 0 17 484 0 902 897 478 112 119 892 0 0 -17 897 0 902 900 484 120 1
15 895 0 0 +17 119 0 482 477 479 116 484 892 0 471 +15 482 1181 0 479 909 0 17 4
77 0 482 483 119 275 471 469 0 476 -17 483 0 482 479 477 279 278 698 0 704 -17 4
76 0 474 471 906 275 274 707 0 0 -17 274 0 910 705 278 271 476 707 0 906 +15 910
 5 0 704 593 591 17 705 0 910 704 274 267 715 713 0 0 -17 278 0 910 274 704 275
 483 698 0 477 +17 704 0 910 278 705 279 697 692 0 0 -17 715 0 911 286 270 271 7
05 713 0 0 +15 911 1663 0 123 912 0 17 286 0 911 123 715 283 906 466 0 475 +17 2
70 0 911 715 123 267 465 462 0 697 -17 123 0 911 270 286 120 900 898 0 465 -17 4
65 0 703 115 697 120 270 462 0 897 +15 703 1688 0 115 18 0 17 115 0 703 282 465
 112 897 895 0 479 -17 282 0 703 697 115 279 479 20 0 483 -14 255 18 1184 913 ?9
09 914 703 5 6 +0 0 909 914 23 81 1 913 4163 915 18 916 0 917 918 919 14 909 118
2 918 ?907 18 482 5 19 -0 0 907 18 23 14 914 1108 917 ?18 920 921 5 922 -0 0 18
 920 23 13 23 441 0 0 0 0 0 0 9 16 14 16 1140 923 ?924 0 925 5 926 +0 0 924 0 23
 81 1 923 4128 915 16 927 0 0 928 929 14 924 1122 928 ?930 16 931 5 932 +0 0 930
 16 23 15 925 1139 0 564 16 0 50 926 1202 0 16 933 934 0 +.05675 -.002 .003 0 -1
 0 0 0 -1 50 933 1201 0 935 936 926 0 +.0575 0 .003 1 0 0 0 0 -1 50 934 1203 0 9
37 926 938 0 +.0565 -.00225 .003 1 0 0 0 0 -1 14 937 1142 939 ?935 940 941 5 934
 +0 0 935 940 23 50 938 1204 0 940 934 942 0 +.05675 -.0025 .003 0 -1 0 0 0 -1 1
4 940 1144 943 ?937 944 945 5 938 -0 0 937 944 23 50 942 1205 0 944 938 946 0 +.
057 -.01225 .003 -1 0 0 0 0 1 14 944 1146 947 ?940 582 948 5 942 -0 0 940 582 23
 50 946 1206 0 582 942 949 0 +.04725 -.022 .003 177920356510442e-30 -1 0 1 17792
0356510442e-30 0 14 582 1148 950 ?944 589 579 5 946 +0 0 944 589 23 50 949 1207
 0 589 946 951 0 +.0375 -.02175 .003 -1 0 0 0 0 1 14 589 1150 952 ?582 415 586 5
 949 +0 0 582 415 23 50 951 1208 0 415 949 953 0 +.03725 -.0215 .003 0 1 0 0 0 1
 14 415 1152 954 ?589 405 398 5 951 -0 0 589 405 23 50 953 1209 0 405 951 955 0
 +.037 -.02225 .003 1 0 0 0 0 -1 14 405 1154 956 ?415 760 404 5 953 +0 0 415 760
 23 50 955 1210 0 760 953 957 0 +0 -.0225 .003 0 1 0 0 0 1 14 760 1156 958 ?405
 959 759 5 955 -0 0 405 959 23 50 957 1211 0 959 955 960 0 +-.037 -.02175 .003 -
1 0 0 0 0 1 14 959 1158 961 ?760 962 963 5 957 +0 0 760 962 23 50 960 1212 0 962
 957 964 0 +-.03725 -.0215 .003 0 -1 0 0 0 -1 14 962 1160 965 ?959 966 967 5 960
 +0 0 959 966 23 50 964 1213 0 966 960 968 0 +-.0375 -.02175 .003 -1 0 0 0 0 1 1
4 966 1162 969 ?962 970 971 5 964 -0 0 962 970 23 50 968 1214 0 970 964 972 0 +-
.04725 -.022 .003 1779203565104415e-31 -1 0 1 1779203565104415e-31 0 14 970 1164
 973 ?966 974 975 5 968 +0 0 966 974 23 50 972 1215 0 974 968 976 0 +-.057 -.012
25 .003 -1 0 0 0 0 1 14 974 1166 977 ?970 978 979 5 972 +0 0 970 978 23 50 976 1
216 0 978 972 980 0 +-.05675 -.0025 .003 0 1 0 0 0 1 14 978 1168 981 ?974 982 98
3 5 976 +0 0 974 982 23 50 980 1217 0 982 976 984 0 +-.0565 -.00225 .003 1 0 0 0
 0 -1 14 982 1170 985 ?978 986 987 5 980 -0 0 978 986 23 50 984 1218 0 986 980 9
88 0 +-.05725 -.002 .003 0 -1 0 0 0 -1 14 986 1172 989 ?982 990 47 5 984 +0 0 98
2 990 23 50 988 1219 0 990 984 991 0 +-.0575 0 .003 1 0 0 0 0 -1 14 990 1174 992
 ?986 930 993 5 988 -0 0 986 930 23 50 991 1220 0 930 988 994 0 +-.05725 .002 .0
03 0 -1 0 0 0 -1 14 930 1176 995 ?990 924 491 5 991 -0 0 990 924 23 50 994 1221
 0 912 991 996 0 +0 -.017 .003 0 1 0 0 0 1 14 912 1178 997 ?998 907 911 5 994 +0
 0 998 907 23 50 996 1222 0 907 994 19 0 +.0525 3469446951953615e-33 .003 1 -204
085114820801e-30 0 204085114820801e-30 1 0 14 907 1180 999 ?912 909 474 5 996 -0
 0 912 909 23 50 19 1223 0 909 996 6 0 +693889390390723e-32 .017 .003 0 1 0 0 0
 1 81 1 999 4165 915 907 1000 0 918 997 1001 80 255 1 915 0 1002 8001 0 0 0 0 3
 5 0 0 0 FFFFTFTFFFFFFF2 81 1 1000 1893 31 907 0 999 916 887 1003 81 1 918 4164
 915 909 904 0 913 999 1004 81 1 997 4166 915 912 1005 0 999 1006 1007 83 255 3
 1001 .603921568627451 .647058823529412 .686274509803922 81 1 1005 1891 31 912 0
 997 904 916 1008 81 1 1006 4167 915 998 1009 0 997 1010 1011 83 3 1007 .6039215
68627451 .647058823529412 .686274509803922 14 998 1106 1006 ?593 912 1012 5 1013
 +0 0 593 912 23 81 1 1009 4114 31 998 0 1006 1014 1015 1016 81 1 1010 4168 915
 593 1017 0 1006 1018 1019 83 3 1011 .603921568627451 .647058823529412 .68627450
9803922 14 593 1 1010 ?1020 998 910 5 1021 +0 0 1020 998 23 81 1 1017 1598 31 59
3 0 1010 612 1022 1023 81 1 1018 4169 915 1020 1024 0 1010 1025 1026 83 3 1019 .
603921568627451 .647058823529412 .686274509803922 14 1020 595 1018 ?908 593 687
 5 1027 -0 0 908 593 23 81 1 1024 4092 31 1020 0 1018 1028 1029 1030 81 1 1025 4
170 915 908 1022 0 1018 1031 1032 83 3 1026 .603921568627451 .647058823529412 .6
86274509803922 14 908 1810 1025 ?1033 1020 902 5 1034 +0 0 1033 1020 23 81 1 102
2 1812 31 908 0 1025 1017 114 1035 81 1 1031 4171 915 1033 1036 0 1025 1037 1038
 83 3 1032 .603921568627451 .647058823529412 .686274509803922 14 1033 2414 1031
 ?1039 908 1040 5 1041 +0 0 1039 908 23 81 1 1036 2416 31 1033 0 1031 290 815 10
42 81 1 1037 4172 915 1039 1043 0 1031 1044 1045 83 3 1038 .603921568627451 .647
058823529412 .686274509803922 14 1039 2891 1037 ?1046 1033 1047 5 1048 +0 0 1046
 1033 23 81 1 1043 2893 31 1039 0 1037 330 808 1049 81 1 1044 4173 915 1046 1050
 0 1037 1051 1052 83 3 1045 .603921568627451 .647058823529412 .686274509803922 1
4 1046 3375 1044 ?393 1039 1053 5 1054 +0 0 393 1039 23 81 1 1050 3377 31 1046 0
 1044 347 766 1055 81 1 1051 4174 915 393 1056 0 1044 0 1057 83 3 1052 .60392156
8627451 .647058823529412 .686274509803922 14 393 3859 1051 ?0 1046 35 5 1058 +0
 0 0 1046 23 81 1 1056 3861 31 393 0 1051 362 1059 1060 83 3 1057 .6039215686274
51 .647058823529412 .686274509803922 80 1 31 1061 1062 9000 0 0 0 0 3 6 0 0 0 FF
TFTFTTFFFFFF1 81 1 362 3810 31 360 0 0 354 1056 1063 81 1 1059 3979 31 1 0 1064
 1056 102 1065 82 255 3 1060 9 11 2 81 1 1064 4125 1066 1 1059 13 0 0 1067 81 1
 102 3980 31 100 0 0 1059 32 1068 82 3 1065 6 0 3 81 1 32 3981 31 73 0 0 102 28
 1069 82 3 1068 10 0 0 82 3 1069 10 1 0 80 1 1066 1070 1071 8038 0 0 0 0 0 0 0 0
 0 TTTTTTTTTTTTTF10 81 1 13 4126 1070 1 1064 2 0 0 1072 98 255 11 1067 71 114 11
7 110 100 112 108 97 116 116 101 80 1 1070 1073 1074 8017 0 0 0 0 0 0 0 0 0 TTTT
TTTTTTTTTF3 84 255 11 1072 Grundplatte79 255 13 1074 SDL/TYSA_NAME79 14 1071 SDL
/TYSA_UNAME81 1 354 3786 31 352 0 0 762 362 1075 82 3 1063 9 5 0 82 3 1075 9 4 0
 79 9 1062 BTI/DetId50 1058 3880 0 393 0 1054 0 +0 0 5e-4 0 0 1 1 0 0 50 1054 33
96 0 1046 1058 1048 0 +0 0 5e-4 0 0 1 1 0 0 50 1048 2912 0 1039 1054 1041 0 +0 0
 5e-4 0 0 1 1 0 0 50 1041 2435 0 1033 1048 1034 0 +0 0 5e-4 0 0 1 1 0 0 50 1034
 1825 0 908 1041 1021 0 +0 0 .001 0 0 1 1 0 0 50 1021 2 0 593 1034 1027 0 +0 0 .
003 0 0 1 1 0 0 50 1027 984 0 1020 1021 1013 0 +0 0 0 0 0 1 1 0 0 50 1013 1185 0
 998 1027 922 0 +-.0565 .00225 .003 -1 0 0 0 0 1 50 922 1186 0 914 1013 1076 0 +
-.05675 .0025 .003 0 1 0 0 0 1 50 1076 1187 0 920 922 1077 0 +-.057 .01225 .003
 1 0 0 0 0 -1 14 920 1110 1078 ?914 1079 1080 5 1076 -0 0 914 1079 23 50 1077 11
88 0 1079 1076 1081 0 +-.04725 .022 .003 -177920356510442e-30 1 0 -1 -1779203565
10442e-30 0 14 1079 1112 1082 ?920 1083 1084 5 1077 +0 0 920 1083 23 50 1081 118
9 0 1083 1077 1085 0 +-.0375 .02175 .003 1 0 0 0 0 -1 14 1083 1114 1086 ?1079 10
87 1088 5 1081 +0 0 1079 1087 23 50 1085 1190 0 1087 1081 1089 0 +-.03725 .0215
 .003 0 -1 0 0 0 -1 14 1087 1116 1090 ?1083 1091 1092 5 1085 -0 0 1083 1091 23 5
0 1089 1191 0 1091 1085 1093 0 +-.037 .02225 .003 -1 0 0 0 0 1 14 1091 1118 1094
 ?1087 1095 1096 5 1089 +0 0 1087 1095 23 50 1093 1192 0 1095 1089 932 0 +0 .022
5 .003 0 1 0 0 0 1 14 1095 1120 1097 ?1091 1098 1099 5 1093 +0 0 1091 1098 23 50
 932 1193 0 924 1093 1100 0 +.037 .02175 .003 1 0 0 0 0 -1 50 1100 1194 0 1098 9
32 1101 0 +.03725 .0215 .003 0 1 0 0 0 1 14 1098 1124 1102 ?1095 1103 1104 5 110
0 +0 0 1095 1103 23 50 1101 1195 0 1103 1100 1105 0 +.0375 .02175 .003 1 0 0 0 0
 -1 14 1103 1126 1106 ?1098 1107 1108 5 1101 -0 0 1098 1107 23 50 1105 1196 0 11
07 1101 1109 0 +.04725 .022 .003 177920356510442e-30 -1 0 1 177920356510442e-30
 0 14 1107 1128 1110 ?1103 1111 1112 5 1105 -0 0 1103 1111 23 50 1109 1197 0 111
1 1105 1113 0 +.057 .01225 .003 -1 0 0 0 0 1 14 1111 1130 1114 ?1107 1115 1116 5
 1109 -0 0 1107 1115 23 50 1113 1198 0 1115 1109 1117 0 +.05675 .0025 .003 0 -1
 0 0 0 -1 14 1115 1132 1118 ?1111 1119 1120 5 1113 +0 0 1111 1119 23 50 1117 119
9 0 1119 1113 936 0 +.0565 .00225 .003 -1 0 0 0 0 1 14 1119 1134 1121 ?1115 1122
 1123 5 1117 -0 0 1115 1122 23 50 936 1200 0 1122 1117 933 0 +.05725 .002 .003 0
 -1 0 0 0 -1 14 1122 1136 1124 ?1119 935 1125 5 936 -0 0 1119 935 23 81 1 1124 4
149 915 1122 1126 0 1127 1121 1128 14 935 1138 1127 ?1122 937 1129 5 933 +0 0 11
22 937 23 15 1125 1135 0 556 1122 0 17 556 0 1125 880 1130 301 191 553 0 0 +17 8
80 0 1125 1131 556 317 304 877 0 552 +17 1130 0 1125 556 1131 188 187 622 0 1132
 -17 191 0 1129 621 888 188 556 553 0 1130 -15 1129 1137 0 291 935 0 17 621 0 11
29 560 191 192 1132 618 0 0 +17 888 0 1129 191 312 301 1133 885 0 556 +17 312 0
 1129 888 291 309 695 889 0 872 -17 1133 0 1040 111 304 309 888 885 0 0 -15 1040
 2417 0 1133 1033 0 17 111 0 1040 324 1133 108 872 869 0 868 -17 304 0 1040 1133
 320 301 880 877 0 888 -17 320 0 1040 304 316 317 861 858 0 880 -17 316 0 1040 3
20 300 313 1134 862 0 861 +17 861 0 1123 1135 552 313 320 858 0 548 +15 1123 113
3 0 552 1119 0 17 1135 0 1123 1136 861 180 548 546 0 631 -17 552 0 1123 861 1136
 317 1131 549 0 0 +17 548 0 1120 1134 631 313 1135 546 0 0 +15 1120 2123 0 1134
 1115 0 17 1134 0 1120 179 548 297 316 862 0 545 -17 631 0 1120 548 179 180 1137
 628 0 0 +17 179 0 1120 631 1134 176 545 542 0 1138 -17 1137 0 591 175 183 176 6
31 628 0 0 -17 175 0 591 171 1137 172 1138 632 0 1139 +17 183 0 591 1137 187 180
 1136 625 0 1135 +17 187 0 591 183 1132 184 1130 622 0 1131 +17 1136 0 1123 552
 1135 184 183 625 0 0 -17 1132 0 591 187 1140 188 621 618 0 0 -17 1131 0 1125 11
30 880 184 552 549 0 1136 -17 1140 0 591 1132 1141 192 617 614 0 621 -17 1141 0
 591 1140 203 196 613 610 0 617 -17 617 0 925 564 195 196 1140 614 0 0 +17 564 0
 925 40 617 375 199 561 0 0 +17 195 0 925 617 40 192 560 557 0 1140 -17 40 0 925
 195 564 11 36 1142 0 560 +17 560 0 1129 38 621 11 195 557 0 0 +17 38 0 1129 690
 560 360 29 39 0 0 +17 690 0 1129 291 38 352 761 412 0 0 +17 291 0 1129 312 690
 288 685 683 0 689 -17 36 0 35 381 29 375 40 1142 0 1143 -16 1142 3663 1144 ?40
 1145 1146 1147 0 0 1 81 1 1144 4071 31 1142 0 0 1148 776 1149 16 1145 3693 1148
 ?1150 583 1142 1151 0 0 1 16 1146 3683 1152 ?1153 1142 1154 1155 0 0 1 30 1147
 3906 0 1142 1155 1151 0 +.05725 -.002 5e-4 1 0 0 30 1155 3907 0 1146 1156 1147
 0 +.05675 -.0025 5e-4 -1 0 0 30 1151 3905 0 1145 1147 768 0 +.057 -.01225 5e-4
 0 1 0 30 768 3904 0 583 1151 767 0 +.04725 -.022 5e-4 -1 -177920356510442e-30 0
 16 583 3746 1157 ?370 39 1145 768 0 0 1 81 1 1157 4068 31 583 0 0 883 411 1158
 17 370 0 35 385 366 367 580 583 0 396 +17 366 0 35 370 374 363 1150 1145 0 580
 -17 374 0 35 366 381 371 1153 1146 0 1150 -17 1150 0 948 1159 575 371 366 1145
 0 572 +15 948 1145 0 575 944 0 17 1159 0 948 1160 1150 204 572 569 0 1161 -17 5
75 0 948 1150 1160 363 211 573 0 0 +17 572 0 945 1153 1161 371 1159 569 0 0 +15
 945 1143 0 572 940 0 17 1153 0 945 1162 572 378 374 1146 0 568 +17 1161 0 945 5
72 1162 204 203 608 0 0 -17 1162 0 945 1161 1153 200 568 565 0 613 -17 203 0 591
 1141 207 200 1161 608 0 1162 +17 207 0 591 203 584 204 1160 600 0 1159 +17 1160
 0 948 575 1159 208 207 600 0 584 -17 568 0 941 1143 613 378 1162 565 0 0 +17 61
3 0 941 568 199 200 1141 610 0 0 +15 941 3528 0 1143 937 0 17 199 0 941 613 1143
 196 564 561 0 1141 -17 1143 0 941 199 568 375 381 1154 0 564 -17 381 0 35 374 3
6 378 1143 1154 0 1153 +16 1154 3741 1163 ?381 1146 397 1156 0 0 1 81 1 1163 408
7 31 1154 0 0 1152 1164 1165 16 397 3751 1166 ?385 1154 391 1167 0 0 1 30 1156 3
908 0 1154 1167 1155 0 +.0565 -.00225 5e-4 0 -1 0 30 1167 3909 0 397 403 1156 0
 +.0375 -.02175 5e-4 0 1 0 30 403 3910 0 391 0 1167 0 +.03725 -.0215 5e-4 1 0 0
 81 1 1166 4085 31 397 0 0 402 1152 1168 81 1 402 4084 31 391 0 0 860 1166 1169
 81 1 1152 4086 31 1146 0 0 1166 1163 1170 82 3 1168 10 69 1 82 3 1170 10 70 1 8
1 1 860 4083 31 858 0 0 864 402 1171 82 3 1169 10 68 1 81 1 864 4082 31 862 0 0
 856 860 1172 82 3 1171 10 67 1 81 1 856 4081 31 854 0 0 853 864 1173 82 3 1172
 10 66 1 81 1 853 4080 31 851 0 0 842 856 1174 82 3 1173 10 65 1 81 1 842 4079 3
1 840 0 0 846 853 1175 82 3 1174 10 64 1 81 1 846 4078 31 844 0 0 838 842 1176 8
2 3 1175 10 63 1 81 1 838 4077 31 836 0 0 834 846 1177 82 3 1176 10 62 1 81 1 83
4 4076 31 832 0 0 780 838 1178 82 3 1177 10 61 1 81 1 780 4075 31 778 0 0 783 83
4 1179 82 3 1178 10 60 1 81 1 783 4074 31 781 0 0 773 780 1180 82 3 1179 10 59 1
 81 1 773 4073 31 771 0 0 776 783 1181 82 3 1180 10 58 1 81 1 776 4072 31 774 0
 0 1144 773 1182 82 3 1181 10 57 1 82 3 1182 10 56 1 81 1 1164 4088 31 1095 0 10
97 1163 1183 1184 82 3 1165 10 71 1 81 1 1097 4156 915 1095 1164 0 1102 1094 118
5 81 1 1183 4089 31 760 0 958 1164 1186 1187 82 3 1184 10 0 2 81 1 958 4140 915
 760 1183 0 961 956 1188 81 1 1186 4090 31 990 0 992 1183 1028 1189 82 3 1187 10
 1 2 81 1 992 4131 915 990 1186 0 995 989 1190 81 1 1028 4091 31 935 0 1127 1186
 1024 1191 82 3 1189 10 2 2 81 1 1127 4148 915 935 1028 0 939 1124 1192 82 3 119
1 10 3 2 81 1 939 4147 915 937 1193 0 943 1127 1194 83 3 1192 .603921568627451 .
647058823529412 .686274509803922 81 1 1193 4124 31 937 0 939 1195 0 1196 81 1 94
3 4146 915 940 1195 0 947 939 1197 83 3 1194 .603921568627451 .647058823529412 .
686274509803922 81 1 1195 4123 31 940 0 943 1198 1193 1199 81 1 947 4145 915 944
 1200 0 950 943 1201 83 3 1197 .603921568627451 .647058823529412 .68627450980392
2 81 1 1200 4107 31 944 0 947 1202 927 1203 81 1 950 4144 915 582 1204 0 952 947
 1205 83 3 1201 .603921568627451 .647058823529412 .686274509803922 81 1 1204 410
5 31 582 0 950 1206 1202 1207 81 1 952 4143 915 589 1198 0 954 950 1208 83 3 120
5 .603921568627451 .647058823529412 .686274509803922 81 1 1198 4122 31 589 0 952
 1209 1195 1210 81 1 954 4142 915 415 1209 0 956 952 1211 83 3 1208 .60392156862
7451 .647058823529412 .686274509803922 81 1 1209 4121 31 415 0 954 1212 1198 121
3 81 1 956 4141 915 405 1202 0 958 954 1214 83 3 1211 .603921568627451 .64705882
3529412 .686274509803922 81 1 1202 4106 31 405 0 956 1204 1200 1215 83 3 1214 .6
03921568627451 .647058823529412 .686274509803922 82 3 1215 10 18 2 81 1 1212 412
0 31 1119 0 1121 1216 1209 1217 82 3 1213 10 33 2 81 1 1121 4150 915 1119 1212 0
 1124 1118 1218 81 1 1216 4119 31 1115 0 1118 1219 1212 1220 82 3 1217 10 32 2 8
1 1 1118 4151 915 1115 1216 0 1121 1114 1221 81 1 1219 4118 31 1103 0 1106 1222
 1216 1223 82 3 1220 10 31 2 81 1 1106 4154 915 1103 1219 0 1110 1102 1224 81 1
 1222 4117 31 1098 0 1102 1225 1219 1226 82 3 1223 10 30 2 81 1 1102 4155 915 10
98 1222 0 1106 1097 1227 81 1 1225 4116 31 1083 0 1086 1015 1222 1228 82 3 1226
 10 29 2 81 1 1086 4159 915 1083 1225 0 1090 1082 1229 81 1 1015 4115 31 1087 0
 1090 1009 1225 1230 82 3 1228 10 28 2 81 1 1090 4158 915 1087 1015 0 1094 1086
 1231 82 3 1230 10 27 2 81 1 1094 4157 915 1091 1232 0 1097 1090 1233 83 3 1231
 .603921568627451 .647058823529412 .686274509803922 81 1 1232 4100 31 1091 0 109
4 1234 1235 1236 83 3 1233 .603921568627451 .647058823529412 .686274509803922 81
 1 1234 4099 31 1079 0 1082 1237 1232 1238 81 1 1235 4101 31 1107 0 1110 1232 12
39 1240 82 3 1236 10 12 2 81 1 1110 4153 915 1107 1235 0 1114 1106 1241 81 1 123
9 4102 31 924 0 928 1235 1126 1242 82 3 1240 10 13 2 81 1 928 4129 915 924 1239
 0 923 995 1243 81 1 1126 4103 31 1122 0 1124 1239 1206 1244 82 3 1242 10 14 2 8
1 1 1206 4104 31 1111 0 1114 1126 1204 1245 82 3 1244 10 15 2 81 1 1114 4152 915
 1111 1206 0 1118 1110 1246 82 3 1245 10 16 2 83 3 1246 .603921568627451 .647058
823529412 .686274509803922 81 1 995 4130 915 930 1237 0 928 992 1247 83 3 1243 .
603921568627451 .647058823529412 .686274509803922 81 1 1237 4098 31 930 0 995 12
48 1234 1249 83 3 1247 .603921568627451 .647058823529412 .686274509803922 81 1 1
248 4097 31 920 0 1078 1250 1237 1251 82 3 1249 10 10 2 81 1 1078 4161 915 920 1
248 0 1082 917 1252 81 1 1250 4096 31 986 0 989 1253 1248 1254 82 3 1251 10 9 2
 81 1 989 4132 915 986 1250 0 992 985 1255 81 1 1253 4095 31 974 0 977 1256 1250
 1257 82 3 1254 10 8 2 81 1 977 4135 915 974 1253 0 981 973 1258 81 1 1256 4094
 31 970 0 973 1029 1253 1259 82 3 1257 10 7 2 81 1 973 4136 915 970 1256 0 977 9
69 1260 81 1 1029 4093 31 959 0 961 1024 1256 1261 82 3 1259 10 6 2 81 1 961 413
9 915 959 1029 0 965 958 1262 82 3 1261 10 5 2 81 1 965 4138 915 962 1263 0 969
 961 1264 83 3 1262 .603921568627451 .647058823529412 .686274509803922 81 1 1263
 4109 31 962 0 965 927 1265 1266 81 1 969 4137 915 966 1265 0 973 965 1267 83 3
 1264 .603921568627451 .647058823529412 .686274509803922 81 1 1265 4110 31 966 0
 969 1263 1268 1269 83 3 1267 .603921568627451 .647058823529412 .686274509803922
 81 1 1268 4111 31 978 0 981 1265 1270 1271 82 3 1269 10 22 2 81 1 981 4134 915
 978 1268 0 985 977 1272 81 1 1270 4112 31 982 0 985 1268 1014 1273 82 3 1271 10
 23 2 81 1 985 4133 915 982 1270 0 989 981 1274 81 1 1014 4113 31 914 0 917 1270
 1009 1275 82 3 1273 10 24 2 81 1 917 4162 915 914 1014 0 1078 913 1276 82 3 127
5 10 25 2 83 3 1276 .603921568627451 .647058823529412 .686274509803922 83 3 1274
 .603921568627451 .647058823529412 .686274509803922 83 3 1272 .603921568627451 .
647058823529412 .686274509803922 81 1 927 4108 31 16 0 923 1200 1263 1277 82 3 1
266 10 21 2 82 3 1277 10 20 2 83 3 1260 .603921568627451 .647058823529412 .68627
4509803922 83 3 1258 .603921568627451 .647058823529412 .686274509803922 83 3 125
5 .603921568627451 .647058823529412 .686274509803922 81 1 1082 4160 915 1079 123
4 0 1086 1078 1278 83 3 1252 .603921568627451 .647058823529412 .686274509803922
 83 3 1278 .603921568627451 .647058823529412 .686274509803922 83 3 1241 .6039215
68627451 .647058823529412 .686274509803922 82 3 1238 10 11 2 83 3 1229 .60392156
8627451 .647058823529412 .686274509803922 83 3 1227 .603921568627451 .6470588235
29412 .686274509803922 83 3 1224 .603921568627451 .647058823529412 .686274509803
922 83 3 1221 .603921568627451 .647058823529412 .686274509803922 83 3 1218 .6039
21568627451 .647058823529412 .686274509803922 82 3 1210 10 34 2 82 3 1207 10 17
 2 82 3 1203 10 19 2 82 3 1199 10 35 2 82 3 1196 10 36 2 83 3 1190 .603921568627
451 .647058823529412 .686274509803922 83 3 1188 .603921568627451 .64705882352941
2 .686274509803922 83 3 1185 .603921568627451 .647058823529412 .686274509803922
 17 211 0 579 581 580 208 575 573 0 1160 -81 1 883 4067 31 881 0 0 879 1157 1279
 81 1 411 4069 31 394 0 0 1157 1148 1280 82 3 1158 10 52 1 81 1 1148 4070 31 114
5 0 0 411 1144 1281 82 3 1280 10 53 1 82 3 1281 10 54 1 81 1 879 4066 31 877 0 0
 867 883 1282 82 3 1279 10 51 1 81 1 867 4065 31 865 0 0 875 879 1283 82 3 1282
 10 50 1 81 1 875 4064 31 873 0 0 830 867 1284 82 3 1283 10 49 1 81 1 830 4063 3
1 828 0 0 826 875 1285 82 3 1284 10 48 1 81 1 826 4062 31 824 0 0 823 830 1286 8
2 3 1285 10 47 1 81 1 823 4061 31 821 0 0 812 826 1287 82 3 1286 10 46 1 81 1 81
2 4060 31 810 0 0 805 823 1288 82 3 1287 10 45 1 81 1 805 4059 31 51 0 0 799 812
 1289 82 3 1288 10 44 1 81 1 799 4058 31 797 0 0 787 805 1290 82 3 1289 10 43 1
 81 1 787 4057 31 785 0 0 791 799 1291 82 3 1290 10 42 1 81 1 791 4056 31 789 0
 0 567 787 1292 82 3 1291 10 41 1 81 1 567 4055 31 565 0 0 571 791 1293 82 3 129
2 10 40 1 81 1 571 4054 31 569 0 0 563 567 1294 82 3 1293 10 39 1 81 1 563 4053
 31 561 0 0 576 571 1295 82 3 1294 10 38 1 82 3 1295 10 37 1 82 3 1149 10 55 1 1
7 171 0 591 167 175 168 1296 635 0 1297 +17 1138 0 1116 545 1139 176 175 632 0 1
137 -17 1139 0 1116 1138 884 172 541 538 0 1296 -15 1116 1129 0 545 1111 0 17 88
4 0 1116 1139 545 287 300 881 0 541 +17 541 0 1112 876 1296 287 1139 538 0 0 +17
 1296 0 1112 541 1297 172 171 635 0 0 -15 1112 1127 0 541 1107 0 17 1297 0 1112
 1296 876 168 537 534 0 1298 -17 876 0 1112 1297 541 305 296 873 0 537 +17 537 0
 1108 857 1298 305 1297 534 0 0 +17 1298 0 1108 537 1299 168 167 638 0 0 -15 110
8 1125 0 537 1103 0 17 1299 0 1108 1298 857 164 533 530 0 644 -17 167 0 591 1300
 171 164 1298 638 0 1299 +17 1300 0 591 1301 167 160 644 641 0 648 -17 1301 0 59
1 1302 1300 156 648 645 0 652 -17 644 0 1104 533 163 164 1300 641 0 0 +17 648 0
 931 529 159 160 1301 645 0 0 +15 931 1121 0 529 924 0 17 529 0 931 868 648 321
 163 526 0 0 +17 159 0 931 648 868 156 525 522 0 1301 -17 868 0 931 159 529 108
 324 865 0 525 +17 525 0 1099 872 652 108 159 522 0 0 +15 1099 1119 0 694 1095 0
 17 872 0 1099 695 525 309 111 869 0 1133 +17 652 0 1099 525 155 156 1302 649 0
 0 +17 155 0 1099 652 816 152 103 519 0 1302 -17 1302 0 591 1303 1301 152 652 64
9 0 656 -17 1303 0 591 147 1302 148 656 653 0 0 -17 656 0 1096 103 151 152 1303
 653 0 0 +15 1096 2610 0 79 1091 0 17 103 0 1096 79 656 100 155 519 0 831 +17 15
1 0 1096 656 79 148 518 515 0 1304 -17 79 0 1096 151 103 76 831 828 0 518 -17 51
8 0 1092 83 1304 76 151 515 0 1305 +17 1304 0 1092 518 1306 148 147 657 0 1303 -
15 1092 1115 0 518 1087 0 17 1306 0 1092 1304 83 144 514 511 0 663 -17 147 0 591
 1307 1303 144 1304 657 0 1306 +17 1307 0 591 1308 147 140 663 660 0 667 -17 130
8 0 591 135 1307 136 667 664 0 0 -17 663 0 1088 514 143 144 1307 660 0 0 +17 667
 0 1084 510 139 140 1308 664 0 0 +15 1084 2585 0 91 1079 0 17 510 0 1084 91 667
 84 143 507 0 827 +17 139 0 1084 667 91 136 506 503 0 1309 -17 91 0 1084 139 510
 88 827 824 0 506 -17 506 0 1080 95 1309 88 139 503 0 1310 +17 1309 0 1080 506 1
311 136 135 668 0 1308 -15 1080 1109 0 506 920 0 17 1311 0 1080 1309 95 132 502
 495 0 1312 -17 135 0 591 131 1308 132 1309 668 0 1311 +17 131 0 591 1313 135 12
8 1312 671 0 1314 +17 1313 0 591 592 131 124 676 467 0 0 -17 1312 0 921 502 1314
 132 131 671 0 0 -17 1314 0 921 1312 835 128 336 487 0 676 -15 921 1107 0 502 91
4 0 17 835 0 921 1314 502 293 1315 832 0 839 +17 336 0 1012 99 676 293 1314 487
 0 835 +17 676 0 1012 336 127 128 1313 467 0 0 +15 1012 2555 0 99 998 0 17 127 0
 1012 676 99 124 486 480 0 492 -17 99 0 1012 127 336 96 839 836 0 486 -17 492 0
 491 486 1316 124 592 716 0 1313 -15 491 1175 0 486 930 0 17 1316 0 491 492 107
 263 25 10 0 0 -17 592 0 591 262 1313 263 492 716 0 1316 +17 262 0 591 1317 592
 259 266 719 0 1318 +17 1317 0 591 255 262 256 725 722 0 0 -17 266 0 993 25 1318
 263 262 719 0 592 -17 1318 0 993 266 1319 259 49 26 0 725 -15 993 1173 0 343 99
0 0 17 1319 0 993 1318 1320 70 348 801 0 0 -17 49 0 47 42 725 70 1318 26 0 50 +1
7 725 0 47 49 48 259 1317 722 0 0 +15 47 3099 0 42 986 0 17 48 0 47 725 42 256 5
2 457 0 1321 -17 52 0 987 54 1321 30 48 457 0 1322 +17 1321 0 987 52 1323 256 25
5 726 0 1317 -15 987 1169 0 52 982 0 17 1323 0 987 1321 54 252 456 453 0 732 -17
 255 0 591 1324 1317 252 1321 726 0 1323 +17 1324 0 591 1325 255 248 732 729 0 7
36 -17 1325 0 591 1326 1324 244 736 733 0 740 -17 732 0 983 456 251 252 1324 729
 0 0 +17 736 0 979 452 247 248 1325 733 0 0 +15 979 3074 0 63 974 0 17 452 0 979
 63 736 55 251 449 0 800 +17 247 0 979 736 63 244 448 445 0 1325 -17 63 0 979 24
7 452 60 800 797 0 448 -17 448 0 975 66 740 60 247 445 0 788 +15 975 3064 0 66 9
70 0 17 66 0 975 243 448 64 788 785 0 444 -17 740 0 975 448 243 244 1326 737 0 0
 +17 788 0 1053 800 1327 60 66 785 0 0 +15 1053 3378 0 1327 1046 0 17 800 0 1053
 784 788 55 63 797 0 0 +17 1327 0 1053 788 777 64 69 771 0 0 -17 777 0 1053 1327
 792 67 1328 774 0 0 +17 69 0 971 1329 444 67 1327 771 0 440 +15 971 1161 0 444
 966 0 17 1329 0 971 1330 69 236 440 437 0 747 -17 444 0 971 69 1330 64 243 441
 0 1327 +17 440 0 967 1328 747 67 1329 437 0 777 +15 967 3044 0 1328 962 0 17 13
28 0 967 235 440 344 777 774 0 792 -17 747 0 967 440 235 236 758 744 0 0 +17 235
 0 967 747 1328 232 351 434 0 758 -17 758 0 591 756 239 232 747 744 0 751 -17 23
9 0 591 758 1326 236 1330 741 0 1329 +17 751 0 963 351 231 232 756 748 0 0 +15 9
63 3034 0 75 959 0 17 351 0 963 75 751 344 235 434 0 1328 +17 231 0 963 751 75 2
28 433 425 0 757 -17 75 0 963 231 351 73 792 789 0 433 -17 433 0 759 1331 757 73
 231 425 0 796 +17 1331 0 759 809 433 333 796 793 0 0 -17 796 0 1053 792 348 73
 1331 793 0 0 +17 792 0 1053 777 796 344 75 789 0 0 +17 348 0 1053 796 50 333 13
19 801 0 1320 +17 50 0 1053 348 1322 70 42 51 0 1319 +17 1320 0 993 1319 343 333
 809 806 0 1331 -17 343 0 993 1320 850 340 331 677 0 688 +17 809 0 759 355 1331
 340 1320 806 0 0 +17 355 0 759 761 809 352 688 680 0 685 +17 688 0 687 331 685
 340 355 680 0 809 -15 687 3972 0 685 1020 0 17 331 0 687 689 688 328 343 677 0
 694 -17 694 0 1099 339 695 328 689 498 0 850 -17 339 0 1099 816 694 332 850 847
 0 1332 -17 695 0 1099 694 872 288 312 889 0 0 +17 850 0 993 343 1332 328 339 84
7 0 0 +17 1332 0 993 850 25 332 820 817 0 1333 -17 25 0 993 1332 266 104 1316 10
 0 820 +17 820 0 1047 493 1333 104 1332 817 0 0 +17 1333 0 1047 820 831 332 816
 813 0 0 -15 1047 2894 0 493 1039 0 17 831 0 1047 1333 1305 100 79 828 0 816 +17
 816 0 1099 155 339 100 1333 813 0 0 +17 1305 0 1047 831 843 76 83 844 0 0 -17 8
43 0 1047 1305 827 80 87 840 0 0 +17 83 0 1092 1306 518 80 1305 844 0 514 +17 51
4 0 1088 87 663 80 1306 511 0 843 +15 1088 2595 0 87 1083 0 17 87 0 1088 143 514
 84 843 840 0 510 -17 143 0 1088 663 87 140 510 507 0 1307 -17 827 0 1047 843 13
10 84 91 824 0 0 +17 1310 0 1047 827 1315 88 95 810 0 0 -17 1315 0 1047 1310 839
 92 835 832 0 0 -17 95 0 1080 1311 506 92 1310 810 0 502 +17 502 0 921 835 1312
 92 1311 495 0 1315 +17 839 0 1047 1315 493 293 99 836 0 0 +17 493 0 1047 839 82
0 96 107 821 0 0 -17 107 0 491 1316 486 104 493 821 0 25 +17 1322 0 1053 50 784
 30 54 778 0 0 -17 784 0 1053 1322 800 43 59 781 0 0 +17 54 0 987 1323 52 43 132
2 778 0 456 +17 456 0 983 59 732 43 1323 453 0 784 +15 983 3084 0 59 978 0 17 59
 0 983 251 456 55 784 781 0 452 -17 251 0 983 732 59 248 452 449 0 1324 -17 1326
 0 591 239 1325 240 740 737 0 0 -17 1330 0 971 444 1329 240 239 741 0 1326 -17 2
43 0 975 740 66 240 444 441 0 1330 -17 324 0 1040 327 111 321 868 865 0 1334 -17
 327 0 1040 308 324 292 1334 851 0 857 +17 1334 0 1104 163 533 321 327 851 0 529
 -15 1104 2083 0 1334 1098 0 17 163 0 1104 644 1334 160 529 526 0 1300 -17 533 0
 1104 1334 644 292 1299 530 0 0 +17 308 0 1040 296 327 305 857 854 0 876 -17 857
 0 1108 1299 537 292 308 854 0 533 +17 296 0 1040 300 308 287 876 873 0 884 -17
 300 0 1040 316 296 297 884 881 0 1134 -17 545 0 1116 884 1138 297 179 542 0 0 +
83 3 1128 .603921568627451 .647058823529412 .686274509803922 81 1 347 3328 31 33
3 0 0 342 1050 1335 81 1 766 3659 31 39 0 0 1050 764 1336 82 3 1055 9 8 2 81 1 7
64 3662 31 412 0 0 766 762 1337 82 3 1336 9 53 1 82 3 1337 9 2 1 81 1 342 3314 3
1 340 0 0 795 347 1338 82 3 1335 9 9 0 81 1 795 3274 31 793 0 0 803 342 1339 82
 3 1338 9 8 0 81 1 803 3271 31 801 0 0 808 795 1340 82 3 1339 9 45 1 81 1 808 32
28 31 806 0 0 1043 803 1341 82 3 1340 9 51 1 82 3 1341 9 4 1 81 1 330 2840 31 32
8 0 0 338 1043 1342 82 3 1049 9 5 2 81 1 338 2836 31 332 0 0 819 330 1343 82 3 1
342 9 6 0 81 1 819 2787 31 817 0 0 849 338 1344 82 3 1343 9 7 0 81 1 849 2764 31
 847 0 0 815 819 1345 82 3 1344 9 49 1 81 1 815 2753 31 813 0 0 1036 849 1346 82
 3 1345 9 3 1 82 3 1346 9 43 1 81 1 290 2341 31 288 0 0 311 1036 1347 82 3 1042
 9 2 2 81 1 311 2335 31 309 0 0 891 290 1348 82 3 1347 9 78 0 81 1 891 2207 31 8
89 0 0 871 311 1349 82 3 1348 9 79 0 81 1 871 2204 31 869 0 0 887 891 1350 82 3
 1349 9 39 1 81 1 887 2196 31 885 0 0 1000 871 1351 82 3 1350 9 41 1 82 3 1351 9
 55 1 81 1 114 1877 31 112 0 0 1022 118 1352 82 3 1035 7 2 2 81 1 118 1878 31 11
6 0 0 114 122 1353 82 3 1352 8 0 0 81 1 122 1879 31 120 0 0 118 285 1354 82 3 13
53 8 1 0 81 1 285 1880 31 283 0 0 122 472 1355 82 3 1354 8 2 0 82 3 1355 8 3 0 8
2 3 1030 10 4 2 81 1 612 1595 31 610 0 0 597 1017 1356 82 3 1023 6 2 2 81 1 597
 1593 31 608 0 0 594 612 1357 82 3 1356 6 119 1 82 3 1357 6 117 1 82 3 1016 10 2
6 2 81 1 904 1890 31 909 0 918 903 1005 1358 81 1 916 1892 31 18 0 913 1005 1000
 1359 82 3 1008 8 2 2 82 3 1359 8 3 2 82 3 1358 8 1 2 83 3 1004 .603921568627451
 .647058823529412 .686274509803922 82 3 1003 8 4 2 79 15 1002 SDL/TYSA_COLOUR83
 3 929 .603921568627451 .647058823529412 .686274509803922 83 3 919 .603921568627
451 .647058823529412 .686274509803922 81 1 896 1887 31 895 0 0 899 903 1360 82 3
 905 8 7 1 82 3 1360 8 6 1 81 1 894 1885 31 892 0 0 468 899 1361 82 3 901 8 5 1
 81 1 468 1884 31 466 0 0 464 894 1362 82 3 1361 8 4 1 81 1 464 1883 31 462 0 0
 470 468 1363 82 3 1362 8 3 1 82 3 1363 8 2 1 82 3 765 9 47 1 81 1 599 1557 31 5
85 0 0 634 754 1364 81 1 607 1561 31 600 0 0 754 616 1365 82 3 755 6 83 1 81 1 6
16 1563 31 614 0 0 607 746 1366 82 3 1365 6 85 1 81 1 746 1565 31 744 0 0 616 74
3 1367 82 3 1366 6 87 1 81 1 743 1567 31 741 0 0 746 731 1368 82 3 1367 6 89 1 8
1 1 731 1569 31 729 0 0 743 728 1369 82 3 1368 6 91 1 81 1 728 1571 31 726 0 0 7
31 673 1370 82 3 1369 6 93 1 81 1 673 1573 31 671 0 0 728 675 1371 82 3 1370 6 9
5 1 81 1 675 1575 31 467 0 0 673 659 1372 82 3 1371 6 97 1 81 1 659 1577 31 657
 0 0 675 662 1373 82 3 1372 6 99 1 81 1 662 1579 31 660 0 0 659 643 1374 82 3 13
73 6 101 1 81 1 643 1581 31 641 0 0 662 640 1375 82 3 1374 6 103 1 81 1 640 1583
 31 638 0 0 643 630 1376 82 3 1375 6 105 1 81 1 630 1585 31 628 0 0 640 627 1377
 82 3 1376 6 107 1 81 1 627 1587 31 625 0 0 630 596 1378 82 3 1377 6 109 1 81 1
 596 1589 31 416 0 0 627 594 1379 82 3 1378 6 111 1 82 3 1379 6 113 1 81 1 634 1
555 31 632 0 0 624 599 1380 82 3 1364 6 81 1 81 1 624 1553 31 622 0 0 647 634 13
81 82 3 1380 6 79 1 81 1 647 1551 31 645 0 0 637 624 1382 82 3 1381 6 77 1 81 1
 637 1549 31 635 0 0 655 647 1383 82 3 1382 6 75 1 81 1 655 1547 31 653 0 0 666
 637 1384 82 3 1383 6 73 1 81 1 666 1545 31 664 0 0 718 655 1385 82 3 1384 6 71
 1 81 1 718 1543 31 716 0 0 670 666 1386 82 3 1385 6 69 1 81 1 670 1541 31 668 0
 0 724 718 1387 82 3 1386 6 67 1 81 1 724 1539 31 722 0 0 735 670 1388 82 3 1387
 6 65 1 81 1 735 1537 31 733 0 0 739 724 1389 82 3 1388 6 63 1 81 1 739 1535 31
 737 0 0 750 735 1390 82 3 1389 6 61 1 81 1 750 1533 31 748 0 0 701 739 1391 82
 3 1390 6 59 1 81 1 701 1531 31 707 0 0 696 750 1392 82 3 1391 6 57 1 82 3 1392
 6 55 1 81 1 753 1519 31 752 0 0 651 721 1393 81 1 651 1517 31 649 0 0 202 753 1
394 81 1 721 1521 31 719 0 0 753 620 1395 82 3 1393 6 43 1 81 1 620 1523 31 618
 0 0 721 706 1396 82 3 1395 6 45 1 81 1 706 1525 31 698 0 0 620 700 1397 82 3 13
96 6 47 1 81 1 700 1527 31 713 0 0 706 696 1398 82 3 1397 6 49 1 82 3 1398 6 51
 1 81 1 202 1475 31 200 0 0 206 651 1399 82 3 1394 6 41 1 81 1 206 1473 31 204 0
 0 198 202 1400 82 3 1399 6 79 0 81 1 198 1471 31 196 0 0 214 206 1401 82 3 1400
 6 77 0 81 1 214 1469 31 212 0 0 218 198 1402 82 3 1401 6 75 0 81 1 218 1467 31
 216 0 0 222 214 1403 82 3 1402 6 73 0 81 1 222 1465 31 220 0 0 182 218 1404 82
 3 1403 6 71 0 81 1 182 1463 31 180 0 0 186 222 1405 82 3 1404 6 69 0 81 1 186 1
461 31 184 0 0 170 182 1406 82 3 1405 6 67 0 81 1 170 1459 31 168 0 0 166 186 14
07 82 3 1406 6 65 0 81 1 166 1457 31 164 0 0 162 170 1408 82 3 1407 6 63 0 81 1
 162 1455 31 160 0 0 142 166 1409 82 3 1408 6 61 0 81 1 142 1453 31 140 0 0 146
 162 1410 82 3 1409 6 59 0 81 1 146 1451 31 144 0 0 150 142 1411 82 3 1410 6 57
 0 81 1 150 1449 31 148 0 0 130 146 1412 82 3 1411 6 55 0 81 1 130 1447 31 128 0
 0 134 150 1413 82 3 1412 6 53 0 81 1 134 1445 31 132 0 0 126 130 1414 82 3 1413
 6 51 0 81 1 126 1443 31 124 0 0 254 134 1415 82 3 1414 6 49 0 81 1 254 1441 31
 252 0 0 250 126 1416 82 3 1415 6 47 0 81 1 250 1439 31 248 0 0 258 254 1417 82
 3 1416 6 45 0 81 1 258 1437 31 256 0 0 238 250 1418 82 3 1417 6 43 0 81 1 238 1
435 31 236 0 0 234 258 1419 82 3 1418 6 41 0 81 1 234 1433 31 232 0 0 226 238 14
20 82 3 1419 6 39 0 81 1 226 1431 31 224 0 0 210 234 1421 82 3 1420 6 37 0 81 1
 210 1429 31 208 0 0 178 226 1422 82 3 1421 6 35 0 81 1 178 1427 31 176 0 0 190
 210 1423 82 3 1422 6 33 0 81 1 190 1425 31 188 0 0 158 178 1424 82 3 1423 6 31
 0 81 1 158 1423 31 156 0 0 174 190 1425 82 3 1424 6 29 0 81 1 174 1421 31 172 0
 0 265 158 1426 82 3 1425 6 27 0 81 1 265 1419 31 263 0 0 138 174 1427 82 3 1426
 6 25 0 81 1 138 1417 31 136 0 0 261 265 1428 82 3 1427 6 23 0 81 1 261 1415 31
 259 0 0 246 138 1429 82 3 1428 6 21 0 81 1 246 1413 31 244 0 0 242 261 1430 82
 3 1429 6 19 0 81 1 242 1411 31 240 0 0 273 246 1431 82 3 1430 6 17 0 81 1 273 1
409 31 271 0 0 269 242 1432 82 3 1431 6 15 0 81 1 269 1407 31 267 0 0 277 273 14
33 82 3 1432 6 13 0 81 1 277 1405 31 275 0 0 281 269 1434 82 3 1433 6 11 0 81 1
 281 1403 31 279 0 0 194 277 1435 82 3 1434 6 9 0 81 1 194 1401 31 192 0 0 230 2
81 1436 82 3 1435 6 7 0 81 1 230 1399 31 228 0 0 154 194 1437 82 3 1436 6 5 0 81
 1 154 1397 31 152 0 0 0 230 1438 82 3 1437 6 3 0 82 3 1438 6 1 0 82 3 702 6 53
 1 81 1 380 4015 31 378 0 0 373 691 1439 81 1 682 4017 31 680 0 0 691 679 1440 8
2 3 693 10 0 1 81 1 679 4018 31 677 0 0 682 684 1441 82 3 1440 10 1 1 82 3 1441
 10 2 1 81 1 373 4014 31 371 0 0 377 380 1442 82 3 1439 10 35 0 81 1 377 4013 31
 375 0 0 369 373 1443 82 3 1442 10 34 0 81 1 369 4012 31 367 0 0 384 377 1444 82
 3 1443 10 33 0 81 1 384 4011 31 382 0 0 386 369 1445 82 3 1444 10 32 0 82 3 144
5 10 31 0 81 1 521 4020 31 519 0 0 684 432 1446 82 3 686 10 3 1 81 1 432 4021 31
 425 0 0 521 559 1447 82 3 1446 10 4 1 81 1 559 4022 31 557 0 0 432 443 1448 82
 3 1447 10 5 1 81 1 443 4023 31 441 0 0 559 447 1449 82 3 1448 10 6 1 81 1 447 4
024 31 445 0 0 443 460 1450 82 3 1449 10 7 1 81 1 460 4025 31 26 0 0 447 505 145
1 82 3 1450 10 8 1 81 1 505 4026 31 503 0 0 460 24 1452 82 3 1451 10 9 1 81 1 24
 4027 31 10 0 0 505 540 1453 82 3 1452 10 10 1 81 1 540 4028 31 538 0 0 24 524 1
454 82 3 1453 10 11 1 81 1 524 4029 31 522 0 0 540 555 1455 82 3 1454 10 12 1 81
 1 555 4030 31 553 0 0 524 544 1456 82 3 1455 10 13 1 81 1 544 4031 31 542 0 0 5
55 574 1457 82 3 1456 10 14 1 81 1 574 4032 31 573 0 0 544 424 1458 82 3 1457 10
 15 1 81 1 424 4033 31 410 0 0 574 436 1459 82 3 1458 10 16 1 81 1 436 4034 31 4
34 0 0 424 439 1460 82 3 1459 10 17 1 81 1 439 4035 31 437 0 0 436 459 1461 82 3
 1460 10 18 1 81 1 459 4036 31 457 0 0 439 451 1462 82 3 1461 10 19 1 81 1 451 4
037 31 449 0 0 459 455 1463 82 3 1462 10 20 1 81 1 455 4038 31 453 0 0 451 485 1
464 82 3 1463 10 21 1 82 3 1464 10 22 1 82 3 598 6 115 1 17 399 0 398 408 390 21
6 401 419 0 587 -17 401 0 586 396 587 382 399 419 0 0 +81 1 422 4051 31 419 0 0
 418 576 1465 82 3 578 10 36 1 82 3 1465 10 35 1 81 1 551 4048 31 549 0 0 536 42
1 1466 81 1 536 4047 31 534 0 0 532 551 1467 81 1 421 4049 31 546 0 0 551 418 14
68 82 3 1466 10 32 1 82 3 1468 10 33 1 81 1 532 4046 31 530 0 0 528 536 1469 82
 3 1467 10 31 1 81 1 528 4045 31 526 0 0 509 532 1470 82 3 1469 10 30 1 81 1 509
 4044 31 507 0 0 513 528 1471 82 3 1470 10 29 1 81 1 513 4043 31 511 0 0 517 509
 1472 82 3 1471 10 28 1 81 1 517 4042 31 515 0 0 494 513 1473 82 3 1472 10 27 1
 81 1 494 4041 31 487 0 0 489 517 1474 82 3 1473 10 26 1 81 1 489 4040 31 495 0
 0 485 494 1475 82 3 1474 10 25 1 82 3 1475 10 24 1 82 3 490 10 23 1 82 3 481 8
 0 1 82 3 473 8 1 1 82 3 423 10 34 1 81 1 315 4009 31 313 0 0 319 386 1476 82 3
 388 10 30 0 81 1 319 4008 31 317 0 0 307 315 1477 82 3 1476 10 29 0 81 1 307 40
07 31 305 0 0 326 319 1478 82 3 1477 10 28 0 81 1 326 4006 31 292 0 0 323 307 14
79 82 3 1478 10 27 0 81 1 323 4005 31 321 0 0 86 326 1480 82 3 1479 10 26 0 81 1
 86 4004 31 84 0 0 82 323 1481 82 3 1480 10 25 0 81 1 82 4003 31 80 0 0 78 86 14
82 82 3 1481 10 24 0 81 1 78 4002 31 76 0 0 335 82 1483 82 3 1482 10 23 0 81 1 3
35 4001 31 293 0 0 94 78 1484 82 3 1483 10 22 0 81 1 94 4000 31 92 0 0 98 335 14
85 82 3 1484 10 21 0 81 1 98 3999 31 96 0 0 53 94 1486 82 3 1485 10 20 0 81 1 53
 3998 31 43 0 0 45 98 1487 82 3 1486 10 19 0 81 1 45 3997 31 55 0 0 41 53 1488 8
2 3 1487 10 18 0 82 3 1488 10 17 0 81 1 365 3992 31 363 0 0 299 358 1489 81 1 29
9 3991 31 297 0 0 303 365 1490 81 1 358 3993 31 345 0 0 365 350 1491 82 3 1489 1
0 12 0 81 1 350 3994 31 344 0 0 358 44 1492 82 3 1491 10 13 0 81 1 44 3995 31 67
 0 0 350 41 1493 82 3 1492 10 14 0 82 3 1493 10 15 0 81 1 303 3990 31 301 0 0 11
0 299 1494 82 3 1490 10 11 0 81 1 110 3989 31 108 0 0 295 303 1495 82 3 1494 10
 10 0 81 1 295 3988 31 287 0 0 106 110 1496 82 3 1495 10 9 0 81 1 106 3987 31 10
4 0 0 90 295 1497 82 3 1496 10 8 0 81 1 90 3986 31 88 0 0 72 106 1498 82 3 1497
 10 7 0 81 1 72 3985 31 70 0 0 62 90 1499 82 3 1498 10 6 0 81 1 62 3984 31 60 0
 0 33 72 1500 82 3 1499 10 5 0 81 1 33 3983 31 64 0 0 28 62 1501 82 3 1500 10 4
 0 82 3 1501 10 3 0 82 3 46 10 16 0 82 3 34 10 2 0 19 17 1266 0 1 0 9 5 S0 74 4
 CI16 index_map_offset0 0 1 dCCZ20 15 5 0 0 1193 1064 13 2 1051 0 0 0 0 0 0 0 0
 0 0 0 0 0 0 0 80 1 12 915 1502 8040 0 0 0 0 3 5 0 0 0 TTTFFFFFFFFFFF2 83 3 14 .
603921568627451 .647058823529412 .686274509803922 79 17 1502 SDL/TYSA_COLOUR_21
 0 
